<?xml version="1.0" encoding="UTF-8" standalone="no"?>
<svg
   xmlns:dc="http://purl.org/dc/elements/1.1/"
   xmlns:cc="http://creativecommons.org/ns#"
   xmlns:rdf="http://www.w3.org/1999/02/22-rdf-syntax-ns#"
   xmlns:svg="http://www.w3.org/2000/svg"
   xmlns="http://www.w3.org/2000/svg"
   xmlns:sodipodi="http://sodipodi.sourceforge.net/DTD/sodipodi-0.dtd"
   xmlns:inkscape="http://www.inkscape.org/namespaces/inkscape"
   aria-hidden="true"
   focusable="false"
   data-prefix="fas"
   data-icon="child"
   class="svg-inline--fa fa-child fa-w-12"
   role="img"
   viewBox="0 0 384 512"
   version="1.1"
   id="svg82"
   sodipodi:docname="child-solid.svg"
   inkscape:version="1.0.2 (e86c870879, 2021-01-15)">
  <metadata
     id="metadata88">
    <rdf:RDF>
      <cc:Work
         rdf:about="">
        <dc:format>image/svg+xml</dc:format>
        <dc:type
           rdf:resource="http://purl.org/dc/dcmitype/StillImage" />
      </cc:Work>
    </rdf:RDF>
  </metadata>
  <defs
     id="defs86" />
  <sodipodi:namedview
     pagecolor="#ffffff"
     bordercolor="#666666"
     borderopacity="1"
     objecttolerance="10"
     gridtolerance="10"
     guidetolerance="10"
     inkscape:pageopacity="0"
     inkscape:pageshadow="2"
     inkscape:window-width="1920"
     inkscape:window-height="1017"
     id="namedview84"
     showgrid="false"
     inkscape:zoom="1.6601562"
     inkscape:cx="76.047059"
     inkscape:cy="207.81176"
     inkscape:window-x="1912"
     inkscape:window-y="-8"
     inkscape:window-maximized="1"
     inkscape:current-layer="svg82" />
  <path
     fill="currentColor"
     d="M120 72c0-39.765 32.235-72 72-72s72 32.235 72 72c0 39.764-32.235 72-72 72s-72-32.236-72-72zm254.627 1.373c-12.496-12.497-32.758-12.497-45.254 0L242.745 160H141.254L54.627 73.373c-12.496-12.497-32.758-12.497-45.254 0-12.497 12.497-12.497 32.758 0 45.255L104 213.254V480c0 17.673 14.327 32 32 32h16c17.673 0 32-14.327 32-32V368h16v112c0 17.673 14.327 32 32 32h16c17.673 0 32-14.327 32-32V213.254l94.627-94.627c12.497-12.497 12.497-32.757 0-45.254z"
     id="path80" />
  <path
     style="fill:#0065fc;stroke-width:0.602353;fill-opacity:1"
     d="m 134.17412,511.65424 c -9.07985,-1.26264 -14.72406,-3.85966 -20.19438,-9.29189 -2.19267,-2.17739 -4.79547,-5.54438 -5.86383,-7.58547 -3.99613,-7.63451 -3.73955,2.39853 -3.74936,-146.60845 l -0.009,-135.2198 -49.317917,-49.40137 C 0.3326364,108.74758 3.0896581,111.91049 0.95173439,101.49647 -2.2480829,85.909874 8.2955421,69.592855 24.323592,65.326838 c 4.213977,-1.12159 10.82405,-1.107153 15.202171,0.0332 8.617202,2.244496 6.8048,0.636879 55.809438,49.503482 l 45.490489,45.36236 H 192 243.17431 l 45.49049,-45.36236 c 39.14158,-39.03133 45.96724,-45.587956 48.90641,-46.978782 12.89659,-6.102709 25.9632,-4.119493 36.14562,5.486087 7.88731,7.440485 11.40272,18.036217 9.33143,28.125645 -2.13792,10.41402 0.6191,7.25111 -54.08799,62.05079 l -49.31792,49.40137 -0.009,135.2198 c -0.01,149.00698 0.24677,138.97394 -3.74936,146.60845 -2.61247,4.99107 -8.77334,11.00802 -13.70997,13.38972 -6.40047,3.08792 -9.27477,3.53456 -22.58824,3.50999 -13.32023,-0.0246 -16.1356,-0.52696 -22.81534,-4.0712 -7.81857,-4.1485 -14.64272,-13.82169 -16.02212,-22.71127 -0.37624,-2.42467 -0.60928,-25.52947 -0.6121,-60.68706 l -0.005,-56.77177 H 192 183.86824 l -0.005,56.77177 c -0.003,35.15759 -0.23586,58.26239 -0.6121,60.68706 -1.81069,11.66902 -11.06755,22.02059 -22.87512,25.58035 -3.23306,0.97471 -21.69824,1.80611 -26.20235,1.17977 z"
     id="path913" />
  <path
     style="fill:#0065fc;fill-opacity:1;stroke-width:0.602353"
     d="m 185.07294,143.30979 c -16.1102,-1.59976 -32.06798,-9.19237 -43.63858,-20.76298 -21.26329,-21.26328 -27.03437,-53.963784 -14.24774,-80.731446 7.41752,-15.527914 18.1649,-26.437773 33.49103,-33.9973427 11.96725,-5.902816 23.3753,-8.07074087 37.34588,-7.09701519 16.18151,1.12782359 32.71192,8.82641869 44.58236,20.76303489 33.51549,33.702352 25.68074,89.599109 -15.84882,113.073009 -12.06041,6.81695 -27.83082,10.12838 -41.68413,8.75274 z"
     id="path915" />
</svg>
