<?xml version="1.0" encoding="UTF-8" standalone="no"?>
<svg
   xmlns:dc="http://purl.org/dc/elements/1.1/"
   xmlns:cc="http://creativecommons.org/ns#"
   xmlns:rdf="http://www.w3.org/1999/02/22-rdf-syntax-ns#"
   xmlns:svg="http://www.w3.org/2000/svg"
   xmlns="http://www.w3.org/2000/svg"
   xmlns:sodipodi="http://sodipodi.sourceforge.net/DTD/sodipodi-0.dtd"
   xmlns:inkscape="http://www.inkscape.org/namespaces/inkscape"
   aria-hidden="true"
   focusable="false"
   data-prefix="fas"
   data-icon="dog"
   class="svg-inline--fa fa-dog fa-w-18"
   role="img"
   viewBox="0 0 576 512"
   version="1.1"
   id="svg929"
   sodipodi:docname="dog-solid.svg"
   inkscape:version="1.0.2 (e86c870879, 2021-01-15)">
  <metadata
     id="metadata935">
    <rdf:RDF>
      <cc:Work
         rdf:about="">
        <dc:format>image/svg+xml</dc:format>
        <dc:type
           rdf:resource="http://purl.org/dc/dcmitype/StillImage" />
      </cc:Work>
    </rdf:RDF>
  </metadata>
  <defs
     id="defs933" />
  <sodipodi:namedview
     pagecolor="#ffffff"
     bordercolor="#666666"
     borderopacity="1"
     objecttolerance="10"
     gridtolerance="10"
     guidetolerance="10"
     inkscape:pageopacity="0"
     inkscape:pageshadow="2"
     inkscape:window-width="1920"
     inkscape:window-height="1017"
     id="namedview931"
     showgrid="false"
     inkscape:zoom="1.6601562"
     inkscape:cx="288"
     inkscape:cy="256"
     inkscape:window-x="1912"
     inkscape:window-y="-8"
     inkscape:window-maximized="1"
     inkscape:current-layer="svg929" />
  <path
     fill="currentColor"
     d="M298.06,224,448,277.55V496a16,16,0,0,1-16,16H368a16,16,0,0,1-16-16V384H192V496a16,16,0,0,1-16,16H112a16,16,0,0,1-16-16V282.09C58.84,268.84,32,233.66,32,192a32,32,0,0,1,64,0,32.06,32.06,0,0,0,32,32ZM544,112v32a64,64,0,0,1-64,64H448v35.58L320,197.87V48c0-14.25,17.22-21.39,27.31-11.31L374.59,64h53.63c10.91,0,23.75,7.92,28.62,17.69L464,96h64A16,16,0,0,1,544,112Zm-112,0a16,16,0,1,0-16,16A16,16,0,0,0,432,112Z"
     id="path927" />
  <path
     style="fill:#0065fc;stroke-width:0.602353"
     d="m 109.62624,511.40339 c -4.8991,-0.85625 -8.72289,-3.48642 -11.203396,-7.70616 L 96.752941,500.85647 96.451765,391.35299 96.150588,281.8495 90.127059,279.27739 C 67.428644,269.58491 48.419646,250.14617 39.22471,227.22427 c -4.554626,-11.35414 -6.622357,-21.82898 -6.622357,-33.54794 0,-5.07675 0.302343,-7.79854 1.182829,-10.64818 3.556948,-11.51184 12.508574,-19.55639 24.526159,-22.04091 19.085362,-3.94571 37.405607,11.705 37.536517,32.06688 0.08803,13.69267 10.280802,26.57247 23.819522,30.09886 3.10058,0.80759 14.36706,0.92231 90.57796,0.92231 h 87.03694 l 74.39151,26.57018 c 40.91533,14.6136 74.74424,26.70553 75.17536,26.87097 0.64042,0.24575 0.75543,20.65113 0.62853,111.51923 -0.15171,108.63144 -0.18246,111.27314 -1.32193,113.56967 -1.58372,3.19192 -4.7845,6.27393 -8.11602,7.81486 -2.71822,1.25725 -3.3543,1.27862 -38.04468,1.27862 h -35.28023 l -3.54565,-1.81331 c -3.93739,-2.01366 -7.08798,-5.59559 -8.08758,-9.19484 -0.40906,-1.47291 -0.62426,-21.95223 -0.62646,-59.61773 l -0.003,-57.37412 h -80.4053 -80.40531 l -0.1594,58.27765 c -0.15387,56.2591 -0.1998,58.35909 -1.326,60.62887 -1.58372,3.19192 -4.7845,6.27393 -8.11602,7.81486 -2.70413,1.25073 -3.49372,1.28071 -36.19502,1.37454 -18.38683,0.0528 -34.68514,-0.12335 -36.21847,-0.39135 z"
     id="path937" />
  <path
     style="fill:#0065fc;stroke-width:0.602353"
     d="m 383.47294,220.23215 -62.6447,-22.42658 -0.1529,-76.67424 c -0.14639,-73.416403 -0.10565,-76.780523 0.95885,-79.175725 2.64415,-5.949514 7.90117,-9.43286 14.22055,-9.422662 6.34916,0.01025 7.99217,1.19541 24.12173,17.399911 l 14.45176,14.518911 28.61648,0.0072 c 31.42716,0.0079 31.77009,0.04046 39.15309,3.723174 2.56366,1.278779 5.49949,3.524638 8.48556,6.491292 4.01731,3.991189 5.08697,5.567036 8.90539,13.119561 l 4.33967,8.583529 33.56049,0.04584 c 24.09517,0.03289 34.10143,0.24526 35.47843,0.752941 3.93376,1.450327 7.20347,4.364368 8.99812,8.019318 l 1.73336,3.53014 0.20953,15.11743 c 0.41889,30.22205 -1.75415,41.25378 -10.84415,55.05175 -10.33007,15.68033 -26.98142,25.99532 -45.66958,28.2909 -2.8073,0.34483 -12.90425,0.62697 -22.43764,0.62697 H 447.62353 V 225.28 c 0,13.59689 -0.16687,17.45831 -0.75294,17.42348 -0.41412,-0.0246 -28.94306,-10.13671 -63.39765,-22.47133 z m 39.79638,-93.60416 c 2.94508,-1.50389 6.66447,-5.48015 7.90634,-8.45237 1.20194,-2.87663 1.16412,-9.45279 -0.0709,-12.32551 -1.31447,-3.05755 -4.84233,-6.863331 -7.83545,-8.452717 -3.48391,-1.850001 -11.05473,-1.850001 -14.53864,0 -2.98397,1.584525 -6.67966,5.566527 -7.91916,8.532657 -1.33493,3.1945 -1.13712,9.7957 0.38794,12.94605 1.67631,3.4628 5.25735,6.81106 8.82032,8.24696 3.8001,1.53147 9.71368,1.31051 13.24954,-0.49507 z"
     id="path939" />
</svg>
