<?xml version="1.0" encoding="UTF-8" standalone="no"?>
<svg
   xmlns:dc="http://purl.org/dc/elements/1.1/"
   xmlns:cc="http://creativecommons.org/ns#"
   xmlns:rdf="http://www.w3.org/1999/02/22-rdf-syntax-ns#"
   xmlns:svg="http://www.w3.org/2000/svg"
   xmlns="http://www.w3.org/2000/svg"
   xmlns:sodipodi="http://sodipodi.sourceforge.net/DTD/sodipodi-0.dtd"
   xmlns:inkscape="http://www.inkscape.org/namespaces/inkscape"
   aria-hidden="true"
   focusable="false"
   data-prefix="fas"
   data-icon="info-circle"
   class="svg-inline--fa fa-info-circle fa-w-16"
   role="img"
   viewBox="0 0 512 512"
   version="1.1"
   id="svg995"
   sodipodi:docname="info-circle-solid.svg"
   inkscape:version="1.0.2 (e86c870879, 2021-01-15)">
  <metadata
     id="metadata1001">
    <rdf:RDF>
      <cc:Work
         rdf:about="">
        <dc:format>image/svg+xml</dc:format>
        <dc:type
           rdf:resource="http://purl.org/dc/dcmitype/StillImage" />
      </cc:Work>
    </rdf:RDF>
  </metadata>
  <defs
     id="defs999" />
  <sodipodi:namedview
     pagecolor="#ffffff"
     bordercolor="#666666"
     borderopacity="1"
     objecttolerance="10"
     gridtolerance="10"
     guidetolerance="10"
     inkscape:pageopacity="0"
     inkscape:pageshadow="2"
     inkscape:window-width="1920"
     inkscape:window-height="1017"
     id="namedview997"
     showgrid="false"
     inkscape:zoom="1.6601562"
     inkscape:cx="140.04706"
     inkscape:cy="256"
     inkscape:window-x="1912"
     inkscape:window-y="-8"
     inkscape:window-maximized="1"
     inkscape:current-layer="svg995" />
  <path
     fill="currentColor"
     d="M256 8C119.043 8 8 119.083 8 256c0 136.997 111.043 248 248 248s248-111.003 248-248C504 119.083 392.957 8 256 8zm0 110c23.196 0 42 18.804 42 42s-18.804 42-42 42-42-18.804-42-42 18.804-42 42-42zm56 254c0 6.627-5.373 12-12 12h-88c-6.627 0-12-5.373-12-12v-24c0-6.627 5.373-12 12-12h12v-64h-12c-6.627 0-12-5.373-12-12v-24c0-6.627 5.373-12 12-12h64c6.627 0 12 5.373 12 12v100h12c6.627 0 12 5.373 12 12v24z"
     id="path993" />
  <path
     style="fill:#0065fc;stroke-width:0.602353"
     d="m 207.50542,382.57545 c -3.03877,-1.38049 -6.14863,-4.87592 -6.62577,-7.44728 -0.20111,-1.08379 -0.28224,-8.6547 -0.1803,-16.82425 l 0.18536,-14.85372 1.83915,-2.27093 c 3.14192,-3.87955 5.53895,-4.73338 13.97261,-4.97703 l 7.37882,-0.21317 v -32.16395 -32.16394 l -7.07764,-0.0132 c -7.86002,-0.0147 -10.55453,-0.80756 -13.51462,-3.9767 -2.70339,-2.8943 -2.8995,-4.238 -2.8995,-19.86622 0,-13.53094 0.0985,-14.93559 1.19915,-17.09295 1.44802,-2.83836 4.27986,-5.08277 7.53497,-5.97192 1.60191,-0.43757 13.22349,-0.65927 34.67655,-0.66151 35.91159,-0.004 36.58275,0.0598 40.21451,3.80683 3.79371,3.91411 3.716,2.70185 3.716,57.96478 v 50.13881 l 7.37882,0.21317 c 8.43366,0.24365 10.8307,1.09748 13.97261,4.97703 l 1.83915,2.27093 0.18536,14.85372 c 0.10194,8.16955 0.0208,15.74046 -0.1803,16.82425 -0.47714,2.57136 -3.587,6.06679 -6.62577,7.44728 -2.26813,1.03039 -5.20941,1.09692 -48.49458,1.09692 -43.28517,0 -46.22645,-0.0665 -48.49458,-1.09692 z"
     id="path1003" />
  <path
     style="fill:#0065fc;stroke-width:0.602353"
     d="m 248.10754,200.92272 c -12.95996,-2.7138 -23.58437,-10.9708 -29.50109,-22.92743 -3.25833,-6.5845 -4.36773,-12.21409 -3.97656,-20.17882 0.75766,-15.42679 9.0919,-28.09608 22.99835,-34.96094 6.49633,-3.20688 11.43125,-4.38467 18.37176,-4.38467 18.17022,0 33.85678,11.48597 39.74995,29.10561 1.80502,5.39675 2.255,15.04209 0.98088,21.02569 -3.19901,15.02347 -15.29069,27.71427 -30.18965,31.68551 -5.06944,1.35122 -13.60862,1.64541 -18.43364,0.63505 z"
     id="path1005" />
  <path
     style="fill:#0065fc;stroke-width:0.602353;fill-opacity:1;stroke:#0065fc;stroke-opacity:1;opacity:1;"
     d="m 207.81607,382.13693 c -1.15717,-0.50181 -2.74151,-1.50767 -3.52077,-2.23524 -3.00423,-2.805 -3.10942,-3.50042 -3.10942,-20.55767 v -15.98169 l 2.56,-2.65824 c 2.78493,-2.8918 5.55644,-3.97987 10.15164,-3.98543 1.52505,-0.002 4.43893,-0.17751 6.4753,-0.39035 l 3.70247,-0.38699 v -32.03238 -32.03239 l -8.15697,-0.6251 c -7.68228,-0.58873 -8.28695,-0.7287 -10.39058,-2.40521 -4.20611,-3.35209 -4.40677,-4.30326 -4.4229,-20.96587 -0.0164,-16.90027 0.19036,-17.79876 4.85324,-21.09449 l 2.55668,-1.80706 17.5685,-0.35558 c 25.96842,-0.5256 52.60838,0.1441 54.91439,1.38048 2.03867,1.09306 3.97426,3.07124 5.18568,5.29981 0.8851,1.62825 1.55597,34.01521 1.67953,81.08125 l 0.0618,23.55654 3.70247,0.38699 c 2.03637,0.21284 4.95025,0.3885 6.4753,0.39035 4.5952,0.005 7.36671,1.09363 10.15164,3.98543 l 2.56,2.65824 v 15.98169 c 0,17.06084 -0.10468,17.75217 -3.11334,20.56135 -3.50926,3.27658 -2.14194,3.19302 -51.83202,3.16752 -39.67803,-0.0204 -46.23589,-0.14809 -48.05269,-0.93596 z"
     id="path1007" />
  <path
     style="opacity:1;fill:#0065fc;fill-opacity:1;stroke:#004efc;stroke-width:0.602353;stroke-opacity:1"
     d="m 239.43529,503.20985 c -1.15953,-0.1329 -5.22541,-0.53429 -9.03529,-0.89199 C 203.86139,499.82622 174.63509,491.56994 148.96053,479.3116 106.44033,459.01031 68.307486,424.38499 43.993903,384 27.546891,356.68142 16.546562,326.60703 11.491227,295.1392 9.1176952,280.36473 8.525215,272.45118 8.5383606,255.69882 8.5606835,227.25133 12.208436,204.63339 21.070147,177.99529 33.797492,139.7372 54.47571,106.87312 83.796426,78.303858 123.59154,39.528646 173.39457,16.206773 230.70118,9.5109776 c 8.81446,-1.0298952 41.78318,-1.0298952 50.59764,0 23.80998,2.7819954 45.7202,8.2042354 66.38065,16.4275744 55.19499,21.968887 101.77903,64.460861 128.72937,117.421448 6.73762,13.2402 9.96192,20.93075 14.52101,34.63529 14.84241,44.61593 16.75266,91.10657 5.63063,137.0353 -2.28265,9.42627 -8.54388,28.33103 -12.24792,36.98057 -4.10311,9.58147 -10.55064,22.22705 -15.95014,31.28309 -27.33465,45.84575 -70.98216,83.01197 -120.68295,102.76254 -19.97804,7.93906 -40.88714,13.25611 -63.06771,16.0377 -7.11719,0.89255 -40.03051,1.70514 -45.17647,1.11536 z m 64.6686,-119.64716 c 3.15486,-0.94522 6.53241,-4.32277 7.47763,-7.47762 0.49089,-1.63845 0.73848,-7.14326 0.73848,-16.41901 0,-15.18451 -0.27153,-16.74928 -3.49548,-20.14337 -2.95808,-3.11417 -4.63711,-3.62076 -12.91864,-3.89771 l -7.68,-0.25684 v -50.84695 c 0,-55.59827 0.14689,-53.20156 -3.49548,-57.03614 -3.66867,-3.86228 -1.98319,-3.6921 -38.66922,-3.90431 -37.26014,-0.21553 -38.39761,-0.12655 -42.19077,3.30034 -3.99181,3.60637 -4.27689,5.14063 -4.0706,21.90758 0.20702,16.82571 0.49684,18.00403 5.25523,21.36663 2.48572,1.75659 2.78289,1.81292 10.63812,2.01675 l 8.08096,0.20969 v 31.4932 31.49321 l -7.68,0.25684 c -8.28153,0.27695 -9.96056,0.78354 -12.91864,3.89771 -3.22395,3.39409 -3.49548,4.95886 -3.49548,20.14337 0,9.26118 0.24789,14.78154 0.73707,16.41428 0.86838,2.8984 4.41479,6.56423 7.21975,7.46287 3.03361,0.97189 93.22743,0.9901 96.46707,0.0195 z m -40.57448,-182.0338 c 15.02891,-2.72681 27.33843,-13.1616 32.2764,-27.36072 5.44457,-15.65584 1.64309,-32.46905 -9.96612,-44.07825 -20.50695,-20.50695 -55.65279,-14.46344 -68.01207,11.69504 -4.80638,10.17271 -5.37876,21.61355 -1.62178,32.41673 6.73737,19.37331 26.92174,31.02885 47.32357,27.3272 z"
     id="path1686" />
  <path
     style="opacity:1;fill:#0065fc;fill-opacity:1;stroke:#004efc;stroke-width:0.602353;stroke-opacity:1"
     d="m 208.20038,382.45198 c -2.66407,-1.06702 -4.93265,-3.06934 -6.12461,-5.40577 -1.09563,-2.14762 -1.19106,-3.58284 -1.19106,-17.9121 V 343.5567 l 2.66694,-2.78338 c 3.12362,-3.25999 4.59327,-3.73051 13.89776,-4.44953 l 6.62588,-0.51203 v -31.9247 -31.92471 l -7.85216,-0.62214 c -8.70917,-0.69005 -11.00851,-1.55409 -13.33919,-5.01259 -1.81339,-2.69089 -2.12548,-6.17535 -1.89614,-21.16997 0.22491,-14.70458 0.44896,-15.51598 5.14419,-18.62994 l 2.5367,-1.68239 20.95507,-0.38509 c 27.01884,-0.49652 49.09191,0.19053 51.79452,1.61217 2.10777,1.10874 4.5576,4.07185 5.321,6.43584 0.26746,0.82823 0.6436,24.41035 0.83586,52.4047 l 0.34957,50.89882 6.62588,0.51203 c 9.20919,0.71165 10.58682,1.15234 13.8042,4.41582 l 2.7605,2.80005 v 15.58593 c 0,14.10561 -0.10833,15.79819 -1.14061,17.82076 -1.40886,2.76042 -2.7772,4.02807 -5.63856,5.22362 -1.93296,0.80764 -8.15056,0.9216 -48.46736,0.88832 -27.4739,-0.0226 -46.82578,-0.26882 -47.66838,-0.60631 z"
     id="path1688" />
  <path
     style="opacity:1;fill:#0065fc;fill-opacity:1;stroke:#0065fc;stroke-width:0.602353;stroke-opacity:1"
     d="m 248.77176,200.81786 c -0.66258,-0.17087 -3.30402,-0.99294 -5.86985,-1.82683 -14.90091,-4.84271 -26.49884,-19.5316 -27.90128,-35.33723 -1.70462,-19.21113 10.13052,-36.78735 28.95231,-42.99673 3.97013,-1.30976 5.98578,-1.59789 11.44471,-1.63599 8.0241,-0.056 11.51363,0.73376 18.93346,4.28509 10.05039,4.81039 18.11439,14.48185 21.49201,25.77618 0.78976,2.64089 1.08031,5.64169 1.07893,11.14353 -0.002,6.8414 -0.16896,8.00375 -1.8304,12.72034 -3.33674,9.4726 -10.07705,17.64991 -18.75697,22.75587 -6.36407,3.74365 -10.74403,4.9352 -19.10997,5.19874 -3.97553,0.12524 -7.77036,0.0879 -8.43295,-0.083 z"
     id="path1690" />
  <path
     style="opacity:1;fill:#ffffff;fill-opacity:1;stroke:#7a7a7a;stroke-width:0.602353;stroke-opacity:1"
     d="M 233.71294,502.265 C 196.8867,498.39199 164.14124,488.02852 133.42118,470.5241 103.85648,453.67801 74.621145,427.21595 54.539413,399.12509 34.099477,370.53316 19.352589,335.69703 12.992766,300.98069 9.7449553,283.25189 9.3674167,278.66487 9.3649538,256.90353 9.362006,230.85822 10.673899,218.69982 15.682912,198.3498 22.866936,169.16341 34.931986,141.8581 51.343055,117.64469 65.738872,96.404643 87.441288,73.626034 108.12235,58.049786 141.80009,32.684905 182.01932,16.512645 226.48471,10.45597 c 9.51929,-1.2966321 47.57284,-1.4989107 56.62117,-0.300977 42.28399,5.598089 76.68723,18.195978 109.62824,40.14402 57.28598,38.168684 95.95052,98.146037 107.17146,166.246867 2.42198,14.69924 2.75798,19.54582 2.75611,39.7553 -0.002,21.18884 -0.53354,27.69311 -3.65156,44.67951 -8.49417,46.27481 -30.95404,90.40404 -63.40669,124.58166 -38.17778,40.20709 -86.46759,65.66249 -141.6552,74.67188 -14.53592,2.37299 -46.67772,3.45662 -60.2353,2.03077 z m 72.40671,-119.27427 c 1.39301,-0.77008 3.35795,-2.57471 4.36655,-4.01029 l 1.8338,-2.61015 0.20211,-14.25574 c 0.23761,-16.7591 -0.15349,-19.41523 -3.34217,-22.69851 -3.05703,-3.14772 -4.88027,-3.7281 -13.27406,-4.22542 l -7.37882,-0.43718 -0.004,-48.86378 c -0.002,-27.67469 -0.24937,-50.36502 -0.57052,-52.32577 -0.35624,-2.17497 -1.17534,-4.2595 -2.20332,-5.60727 -3.05514,-4.00548 -3.31134,-4.05377 -24.62973,-4.64164 -22.69952,-0.62596 -49.54182,-0.2363 -53.00706,0.76948 -3.36892,0.97782 -7.25957,4.90834 -8.07872,8.16152 -0.81658,3.2429 -0.85827,25.18307 -0.0572,30.07549 0.67116,4.09878 1.81188,5.91986 5.18088,8.27092 2.17398,1.51711 2.95874,1.67262 10.33382,2.04772 l 7.98118,0.40594 v 30.85369 30.8537 l -7.37883,0.43718 c -8.43702,0.49989 -10.47045,1.16091 -13.39656,4.35493 -3.06625,3.34699 -3.45405,6.05325 -3.21967,22.46857 0.19453,13.62362 0.25516,14.24062 1.61451,16.42701 0.77682,1.24944 2.38106,3.01133 3.56498,3.9153 2.11439,1.6144 2.35119,1.6503 13.34526,2.02322 6.15596,0.20881 27.93077,0.29676 48.38847,0.19544 l 37.1958,-0.18422 2.53275,-1.40014 z M 269.55294,200.3437 c 26.60894,-9.0927 37.43666,-40.69432 21.90148,-63.92135 -4.17239,-6.23824 -9.85669,-11.22296 -16.52888,-14.49463 -6.46185,-3.16854 -11.892,-4.44411 -18.97978,-4.45844 -18.53919,-0.0375 -34.84721,11.96351 -40.77595,30.00681 -1.95059,5.93635 -2.22046,16.82557 -0.56977,22.98979 3.32355,12.4112 13.00805,23.81614 24.30204,28.61928 5.96147,2.53532 10.54743,3.31367 18.30263,3.10643 6.28354,-0.16792 8.32677,-0.47369 12.34823,-1.84789 z"
     id="path1692" />
</svg>
