<?xml version="1.0" encoding="UTF-8" standalone="no"?>
<svg
   xmlns:dc="http://purl.org/dc/elements/1.1/"
   xmlns:cc="http://creativecommons.org/ns#"
   xmlns:rdf="http://www.w3.org/1999/02/22-rdf-syntax-ns#"
   xmlns:svg="http://www.w3.org/2000/svg"
   xmlns="http://www.w3.org/2000/svg"
   xmlns:sodipodi="http://sodipodi.sourceforge.net/DTD/sodipodi-0.dtd"
   xmlns:inkscape="http://www.inkscape.org/namespaces/inkscape"
   aria-hidden="true"
   focusable="false"
   data-prefix="fas"
   data-icon="money-bill-wave"
   class="svg-inline--fa fa-money-bill-wave fa-w-20"
   role="img"
   viewBox="0 0 640 512"
   version="1.1"
   id="svg1788"
   sodipodi:docname="money-bill-wave-solid.svg"
   inkscape:version="1.0.2 (e86c870879, 2021-01-15)">
  <metadata
     id="metadata1794">
    <rdf:RDF>
      <cc:Work
         rdf:about="">
        <dc:format>image/svg+xml</dc:format>
        <dc:type
           rdf:resource="http://purl.org/dc/dcmitype/StillImage" />
      </cc:Work>
    </rdf:RDF>
  </metadata>
  <defs
     id="defs1792" />
  <sodipodi:namedview
     pagecolor="#ffffff"
     bordercolor="#666666"
     borderopacity="1"
     objecttolerance="10"
     gridtolerance="10"
     guidetolerance="10"
     inkscape:pageopacity="0"
     inkscape:pageshadow="2"
     inkscape:window-width="1920"
     inkscape:window-height="1017"
     id="namedview1790"
     showgrid="false"
     inkscape:zoom="1.6601562"
     inkscape:cx="204.04706"
     inkscape:cy="256"
     inkscape:window-x="1912"
     inkscape:window-y="-8"
     inkscape:window-maximized="1"
     inkscape:current-layer="svg1788" />
  <path
     fill="currentColor"
     d="M621.16 54.46C582.37 38.19 543.55 32 504.75 32c-123.17-.01-246.33 62.34-369.5 62.34-30.89 0-61.76-3.92-92.65-13.72-3.47-1.1-6.95-1.62-10.35-1.62C15.04 79 0 92.32 0 110.81v317.26c0 12.63 7.23 24.6 18.84 29.46C57.63 473.81 96.45 480 135.25 480c123.17 0 246.34-62.35 369.51-62.35 30.89 0 61.76 3.92 92.65 13.72 3.47 1.1 6.95 1.62 10.35 1.62 17.21 0 32.25-13.32 32.25-31.81V83.93c-.01-12.64-7.24-24.6-18.85-29.47zM48 132.22c20.12 5.04 41.12 7.57 62.72 8.93C104.84 170.54 79 192.69 48 192.69v-60.47zm0 285v-47.78c34.37 0 62.18 27.27 63.71 61.4-22.53-1.81-43.59-6.31-63.71-13.62zM320 352c-44.19 0-80-42.99-80-96 0-53.02 35.82-96 80-96s80 42.98 80 96c0 53.03-35.83 96-80 96zm272 27.78c-17.52-4.39-35.71-6.85-54.32-8.44 5.87-26.08 27.5-45.88 54.32-49.28v57.72zm0-236.11c-30.89-3.91-54.86-29.7-55.81-61.55 19.54 2.17 38.09 6.23 55.81 12.66v48.89z"
     id="path1786" />
  <path
     style="fill:#0065fc;stroke:#7a7a7a;stroke-width:0.602353;fill-opacity:1"
     d="M 109.77882,478.78475 C 81.111582,476.6393 51.36483,469.87781 24.244706,459.34267 17.197143,456.60497 13.950198,454.73484 10.273573,451.29579 6.6130059,447.87175 4.0515944,443.84556 2.0507516,438.37062 L 0.45176471,433.99529 0.29360833,271.50835 C 0.1190612,92.181829 -0.13382554,104.43339 3.9085376,96.376471 7.6215386,88.976011 15.653477,82.624669 24.030476,80.464832 c 6.853863,-1.767128 12.053047,-1.317472 23.755375,2.054507 18.032701,5.19605 35.343059,8.53907 55.065909,10.634471 14.14747,1.503057 50.49617,1.503407 66.56,6.02e-4 41.63593,-3.894988 69.74233,-9.448104 152.99765,-30.228453 59.24472,-14.787352 77.81174,-18.925333 106.40881,-23.71504 30.70058,-5.142021 53.8596,-6.976777 82.12766,-6.506499 28.28079,0.470489 46.42211,2.767427 70.72722,8.955027 16.4633,4.19123 38.48371,12.021485 43.9044,15.612 6.54083,4.332476 11.65505,12.03752 13.36182,20.130906 1.34053,6.356722 1.34276,323.716617 0,330.089407 -2.42706,11.53878 -11.5903,21.13158 -22.97206,24.04899 -4.83563,1.23947 -12.17963,1.15178 -17.08014,-0.20395 -2.15341,-0.59575 -7.98117,-2.2093 -12.95059,-3.58568 -40.64263,-11.25677 -87.88717,-13.29025 -140.64941,-6.05376 -32.23805,4.42154 -59.11273,10.20273 -131.01176,28.18279 -39.80014,9.95297 -57.64179,14.16532 -75.29412,17.77666 -28.37606,5.80522 -55.36597,9.62759 -79.10674,11.20328 -10.78991,0.71613 -40.1116,0.67204 -50.09797,-0.0753 z m 2.08598,-50.6624 c -0.20071,-1.73929 -0.74121,-5.10358 -1.20112,-7.47618 -5.39785,-27.84689 -29.447517,-49.20776 -57.656145,-51.21006 l -5.284887,-0.37513 0.157499,24.31248 0.1575,24.31248 7.962146,2.55564 c 16.247352,5.21497 40.846151,10.11109 55.155067,10.97801 0.94631,0.0573 1.03122,-0.31314 0.70994,-3.09724 z m 480.39873,-77.25888 v -29.22124 l -2.56,0.39094 c -1.408,0.21502 -4.80548,1.03288 -7.54994,1.81749 -20.77752,5.94 -37.25041,22.16807 -43.51034,42.8637 -0.73185,2.41948 -1.23208,4.49418 -1.11164,4.61043 0.12044,0.11625 5.3691,0.78368 11.66368,1.48319 13.15266,1.4616 26.84966,3.66128 35.53883,5.70736 3.31294,0.78012 6.36235,1.45236 6.77647,1.49388 0.59304,0.0594 0.75294,-6.13007 0.75294,-29.14575 z m -262.32471,0.60878 c 35.46909,-5.28259 63.21091,-37.3103 69.27687,-79.97961 1.12254,-7.89616 1.12254,-23.08912 0,-30.98528 -6.06911,-42.69141 -33.76894,-74.69405 -69.20572,-79.9559 -7.8673,-1.16819 -12.15264,-1.16819 -20.01994,0 -35.42563,5.2602 -63.13852,37.27792 -69.20572,79.9559 -1.12254,7.89616 -1.12254,23.08912 0,30.98528 7.32746,51.54292 46.16364,86.38246 89.15451,79.97961 z M 63.767076,191.00844 c 18.750675,-4.7993 34.174368,-17.60701 42.437254,-35.23956 2.2102,-4.71644 5.16078,-14.03514 4.61633,-14.57959 -0.14489,-0.14489 -4.97881,-0.66754 -10.74205,-1.16145 -14.255261,-1.22166 -27.16563,-3.00576 -39.391551,-5.44354 -5.632,-1.12299 -10.849883,-2.21453 -11.595294,-2.42566 l -1.355294,-0.38385 v 30.57757 30.57758 l 5.571764,-0.33532 c 3.064471,-0.18442 7.77095,-0.89821 10.458841,-1.58618 z m 528.352544,-71.83849 -0.15727,-24.792418 -5.12,-1.749401 c -11.90675,-4.068307 -33.75842,-8.850927 -47.7663,-10.45449 -3.44053,-0.393859 -3.48891,-0.378306 -3.1995,1.028521 0.16162,0.785634 0.45297,3.251464 0.64745,5.47962 0.44045,5.046197 2.75531,13.145238 5.38223,18.830868 7.09179,15.34926 21.21606,28.06665 37.16637,33.46433 3.92065,1.32678 10.22042,2.85067 12.14349,2.93749 0.99886,0.0451 1.05162,-1.3999 0.90353,-24.74452 z"
     id="path1796" />
</svg>
