<?xml version="1.0" encoding="UTF-8" standalone="no"?>
<svg
   xmlns:dc="http://purl.org/dc/elements/1.1/"
   xmlns:cc="http://creativecommons.org/ns#"
   xmlns:rdf="http://www.w3.org/1999/02/22-rdf-syntax-ns#"
   xmlns:svg="http://www.w3.org/2000/svg"
   xmlns="http://www.w3.org/2000/svg"
   xmlns:sodipodi="http://sodipodi.sourceforge.net/DTD/sodipodi-0.dtd"
   xmlns:inkscape="http://www.inkscape.org/namespaces/inkscape"
   aria-hidden="true"
   focusable="false"
   data-prefix="fas"
   data-icon="star"
   class="svg-inline--fa fa-star fa-w-18"
   role="img"
   viewBox="0 0 576 512"
   version="1.1"
   id="svg2371"
   sodipodi:docname="star-solid.svg"
   inkscape:version="1.0.2 (e86c870879, 2021-01-15)">
  <metadata
     id="metadata2377">
    <rdf:RDF>
      <cc:Work
         rdf:about="">
        <dc:format>image/svg+xml</dc:format>
        <dc:type
           rdf:resource="http://purl.org/dc/dcmitype/StillImage" />
      </cc:Work>
    </rdf:RDF>
  </metadata>
  <defs
     id="defs2375" />
  <sodipodi:namedview
     pagecolor="#ffffff"
     bordercolor="#666666"
     borderopacity="1"
     objecttolerance="10"
     gridtolerance="10"
     guidetolerance="10"
     inkscape:pageopacity="0"
     inkscape:pageshadow="2"
     inkscape:window-width="1920"
     inkscape:window-height="1017"
     id="namedview2373"
     showgrid="false"
     inkscape:zoom="1.6601562"
     inkscape:cx="288"
     inkscape:cy="256"
     inkscape:window-x="1912"
     inkscape:window-y="-8"
     inkscape:window-maximized="1"
     inkscape:current-layer="svg2371" />
  <path
     fill="currentColor"
     d="M259.3 17.8L194 150.2 47.9 171.5c-26.2 3.8-36.7 36.1-17.7 54.6l105.7 103-25 145.5c-4.5 26.3 23.2 46 46.4 33.7L288 439.6l130.7 68.7c23.2 12.2 50.9-7.4 46.4-33.7l-25-145.5 105.7-103c19-18.5 8.5-50.8-17.7-54.6L382 150.2 316.7 17.8c-11.7-23.6-45.6-23.9-57.4 0z"
     id="path2369" />
  <path
     style="fill:#0065fc;stroke:#7a7a7a;stroke-width:0.602353"
     d="m 137.97663,511.38199 c -7.19064,-1.10553 -13.65314,-4.62195 -18.89032,-10.27874 -5.4178,-5.85187 -8.13496,-12.71076 -8.16335,-20.60661 -0.01,-2.65314 4.45142,-30.08203 12.66208,-77.85476 l 12.67681,-73.75846 -3.32159,-3.16171 C 107.10657,301.1315 27.613507,222.7966 26.02513,220.36426 19.327174,210.10743 19.267034,196.53108 25.874608,186.38479 30.56089,179.18875 37.030195,174.45981 44.733954,172.59898 46.840868,172.09005 81.362824,166.90521 121.44941,161.0771 161.536,155.249 194.35553,150.43701 194.3817,150.3838 264.22847,8.3733823 261.40255,13.948039 265.74549,9.6050965 c 6.00549,-6.0054913 13.99576,-9.22458647 22.67362,-9.13468469 9.44309,0.0978295 18.93337,4.72975219 24.32666,11.87311419 1.33382,1.766636 16.86328,32.487011 35.47207,70.170852 18.20478,36.865682 33.178,67.237262 33.27382,67.492392 0.0958,0.25512 33.10787,5.25428 73.3601,11.10924 40.25224,5.85496 74.81224,11.05436 76.8,11.55423 7.5002,1.88606 13.86234,6.60779 18.47927,13.71455 6.64783,10.23291 6.53633,23.88418 -0.27885,34.13785 -1.30459,1.96281 -22.28959,22.86788 -52.94782,52.74615 -27.9327,27.22206 -52.20921,50.94767 -53.94781,52.72356 l -3.16111,3.22888 12.64817,73.58845 c 8.19371,47.672 12.64297,75.03147 12.63343,77.68585 -0.008,2.25358 -0.29405,5.30964 -0.63546,6.79125 -2.50231,10.85942 -12.75611,21.01584 -23.74545,23.51991 -3.92375,0.89409 -10.70391,0.86576 -14.47521,-0.0605 -3.96135,-0.97291 -2.70777,-0.33209 -75.16963,-38.426 l -63.04109,-33.14131 -62.49922,32.86157 c -34.37457,18.07387 -64.80322,34.01422 -67.61922,35.423 -7.29163,3.64785 -13.60101,4.88928 -19.91513,3.91851 z"
     id="path2379" />
</svg>
