<?xml version="1.0" encoding="UTF-8" standalone="no"?>
<svg
   xmlns:osb="http://www.openswatchbook.org/uri/2009/osb"
   xmlns:dc="http://purl.org/dc/elements/1.1/"
   xmlns:cc="http://creativecommons.org/ns#"
   xmlns:rdf="http://www.w3.org/1999/02/22-rdf-syntax-ns#"
   xmlns:svg="http://www.w3.org/2000/svg"
   xmlns="http://www.w3.org/2000/svg"
   xmlns:sodipodi="http://sodipodi.sourceforge.net/DTD/sodipodi-0.dtd"
   xmlns:inkscape="http://www.inkscape.org/namespaces/inkscape"
   aria-hidden="true"
   focusable="false"
   data-prefix="far"
   data-icon="star"
   class="svg-inline--fa fa-star fa-w-18"
   role="img"
   viewBox="0 0 576 512"
   version="1.1"
   id="svg865"
   sodipodi:docname="star-regular.svg"
   inkscape:version="1.0.2 (e86c870879, 2021-01-15)">
  <metadata
     id="metadata871">
    <rdf:RDF>
      <cc:Work
         rdf:about="">
        <dc:format>image/svg+xml</dc:format>
        <dc:type
           rdf:resource="http://purl.org/dc/dcmitype/StillImage" />
      </cc:Work>
    </rdf:RDF>
  </metadata>
  <defs
     id="defs869">
    <linearGradient
       inkscape:collect="always"
       id="linearGradient921"
       osb:paint="gradient">
      <stop
         style="stop-color:#f2f2f2;stop-opacity:1;"
         offset="0"
         id="stop917" />
      <stop
         style="stop-color:#f2f2f2;stop-opacity:0;"
         offset="1"
         id="stop919" />
    </linearGradient>
  </defs>
  <sodipodi:namedview
     pagecolor="#ffffff"
     bordercolor="#666666"
     borderopacity="1"
     objecttolerance="10"
     gridtolerance="10"
     guidetolerance="10"
     inkscape:pageopacity="0"
     inkscape:pageshadow="2"
     inkscape:window-width="1920"
     inkscape:window-height="1017"
     id="namedview867"
     showgrid="false"
     inkscape:zoom="1.6597222"
     inkscape:cx="288"
     inkscape:cy="183.69874"
     inkscape:window-x="-8"
     inkscape:window-y="-8"
     inkscape:window-maximized="1"
     inkscape:current-layer="svg865" />
  <path
     fill="currentColor"
     d="M528.1 171.5L382 150.2 316.7 17.8c-11.7-23.6-45.6-23.9-57.4 0L194 150.2 47.9 171.5c-26.2 3.8-36.7 36.1-17.7 54.6l105.7 103-25 145.5c-4.5 26.3 23.2 46 46.4 33.7L288 439.6l130.7 68.7c23.2 12.2 50.9-7.4 46.4-33.7l-25-145.5 105.7-103c19-18.5 8.5-50.8-17.7-54.6zM388.6 312.3l23.7 138.4L288 385.4l-124.3 65.3 23.7-138.4-100.6-98 139-20.2 62.2-126 62.2 126 139 20.2-100.6 98z"
     id="path863" />
  <path
     style="fill:#0065fc;stroke:#7a7a7a;stroke-width:0.60251"
     d="m 133.11997,510.08633 c -13.42239,-4.57587 -22.22724,-16.21995 -22.25089,-29.42595 -0.004,-2.48816 4.76564,-31.75471 12.66068,-77.6785 6.96731,-40.5274 12.59325,-73.86857 12.50209,-74.09149 -0.0912,-0.22292 -24.29629,-23.9052 -53.789172,-52.62728 -54.362169,-52.94139 -56.94133,-55.64181 -59.635224,-62.43884 -1.412974,-3.56511 -1.922371,-13.24706 -0.923488,-17.55241 2.406035,-10.3704 10.386819,-19.42097 20.151867,-22.8531 2.1655,-0.76112 30.36817,-5.12885 77.926547,-12.06845 40.99305,-5.9816 74.5629,-10.92407 74.59967,-10.98326 0.0368,-0.0592 15.04634,-30.50076 33.35459,-67.64792 23.47953,-47.639617 34.07513,-68.532849 35.96006,-70.908913 5.46235,-6.8856037 13.3318,-10.7142667 22.88959,-11.13629815 9.712,-0.42884088 17.12669,2.39579305 23.79602,9.06512645 4.1451,4.1451027 2.86528,1.6659277 43.92563,85.0894067 15.00547,30.487028 27.30962,55.474508 27.34255,55.527728 0.033,0.0532 32.86658,4.86896 72.96365,10.70163 40.09707,5.83268 74.25942,10.90463 75.91632,11.27103 11.36215,2.51251 21.10757,12.3142 23.80557,23.94302 1.00153,4.31674 0.48971,13.99081 -0.92862,17.55241 -2.73771,6.87469 -5.16042,9.4297 -55.51789,58.54939 -27.28866,26.61792 -51.53581,50.20441 -53.88256,52.41444 l -4.26681,4.01821 12.71497,74.00689 c 8.15446,47.4626 12.71282,75.48151 12.70897,78.11822 -0.0109,7.40413 -3.85435,16.18406 -9.45927,21.60826 -8.17106,7.90759 -21.32699,11.05644 -31.51746,7.54363 -2.15397,-0.74251 -33.66799,-16.99923 -70.03114,-36.12605 l -66.11483,-34.77603 -66.13622,34.77845 c -36.37492,19.12816 -67.89856,35.38488 -70.05253,36.12605 -5.43037,1.86858 -13.2326,1.86882 -18.71267,6e-4 z m 94.92294,-92.77582 c 52.93795,-27.8036 59.81135,-31.25754 61.15481,-30.73082 0.83247,0.32639 28.88911,14.98846 62.34809,32.58239 33.45899,17.59393 60.8976,31.92588 60.9747,31.84879 0.0771,-0.0771 -5.13195,-30.90407 -11.57566,-68.50439 -6.4437,-37.60032 -11.71746,-68.79886 -11.71946,-69.33009 -0.002,-0.53122 22.50013,-22.87637 50.00474,-49.65588 27.5046,-26.77952 50.00836,-48.91643 50.00836,-49.19314 0,-0.2767 -0.23639,-0.5031 -0.52531,-0.5031 -0.28891,0 -29.50314,-4.21116 -64.9205,-9.35813 -35.41735,-5.14697 -66.25686,-9.62411 -68.53224,-9.94919 -2.27537,-0.32508 -4.32547,-0.70751 -4.55577,-0.84985 -0.23031,-0.14233 -14.35007,-28.47189 -31.37725,-62.95458 -17.02718,-34.482677 -31.12124,-62.695784 -31.32012,-62.695784 -0.19889,0 -14.29346,28.21139 -31.32126,62.691974 -17.02781,34.48059 -31.1522,62.81099 -31.38753,62.95643 -0.39467,0.24392 -136.695226,20.15913 -137.969945,20.15913 -0.311883,0 -0.567059,0.21945 -0.567059,0.48768 0,0.26822 22.503764,22.39902 50.008364,49.17955 27.50461,26.78054 50.00837,49.11188 50.00837,49.6252 0,0.87082 -22.47273,132.76269 -23.25467,136.48108 l -0.35712,1.6982 2.61761,-1.33062 c 1.43969,-0.73184 29.45617,-15.42652 62.25885,-32.65485 z"
     id="path873" />
  <path
     style="fill:#0065fc;stroke:#7a7a7a;stroke-width:0.60251"
     d="m 164.48536,448.94027 c 0,-0.51099 5.15146,-31.00306 11.44769,-67.76016 6.29624,-36.7571 11.4477,-67.42401 11.4477,-68.14868 0,-0.95328 -13.74832,-14.70633 -49.72514,-49.74225 -27.34882,-26.63357 -49.626525,-48.52328 -49.506003,-48.64381 0.227863,-0.22786 14.098123,-2.27653 91.398513,-13.4998 25.35062,-3.68066 46.27517,-6.8751 46.49899,-7.09876 0.22383,-0.22365 14.16091,-28.26522 30.9713,-62.31459 16.81038,-34.049375 30.75363,-61.907952 30.98499,-61.907952 0.23137,0 14.17539,27.858577 30.98673,61.907952 16.81134,34.04937 30.74689,62.08992 30.96789,62.31233 0.22099,0.22242 30.63277,4.78284 67.58173,10.13428 36.94895,5.35145 67.95074,9.92045 68.89286,10.15334 1.64455,0.40654 -0.0276,2.12024 -41.87447,42.91462 -23.97309,23.37015 -46.42566,45.22182 -49.89462,48.55928 l -6.30719,6.06811 0.66462,4.44784 c 0.36555,2.44632 5.57617,33.09091 11.57916,68.0991 6.003,35.00817 10.91453,64.05529 10.91453,64.54914 0,0.59035 -21.15133,-10.21426 -61.75085,-31.54381 l -61.75084,-32.44172 -57.99811,30.45829 c -31.89896,16.75205 -59.69266,31.35109 -61.76379,32.4423 -2.93677,1.54728 -3.76569,1.77951 -3.76569,1.05495 z"
     id="path875" />
  <path
     style="fill:#0065fc;stroke:#7a7a7a;stroke-width:0.60251"
     d="m 165.3086,447.22182 c 0.33931,-1.68131 18.02175,-105.9964 21.20812,-125.11431 l 1.58461,-9.50754 -5.93695,-6.15773 c -5.2125,-5.40634 -41.88954,-41.48839 -80.04708,-78.74851 -6.963524,-6.79976 -12.627659,-12.43796 -12.58697,-12.52936 0.122618,-0.27542 8.948486,-1.61344 50.55335,-7.66397 54.48633,-7.92388 79.54685,-11.6578 83.33697,-12.41692 l 3.20307,-0.64155 30.48723,-61.40506 c 16.76798,-33.77279 30.66857,-61.405071 30.89021,-61.405071 0.22164,0 14.12096,27.621141 30.88736,61.380311 25.40482,51.1526 30.7172,61.43802 31.88162,61.72661 2.03631,0.5047 123.8412,18.56906 131.70394,19.53245 1.41598,0.17349 2.7178,0.5473 2.89295,0.83069 0.17514,0.28339 -0.98339,1.91361 -2.57451,3.62273 -3.61069,3.87847 -90.19037,88.3526 -92.83928,90.58153 -1.24686,1.04916 -1.9365,2.17591 -1.9365,3.16389 0,1.3187 21.75018,130.52458 22.63133,134.4403 0.28203,1.25333 -1.76666,0.35508 -17.38326,-7.62171 -9.73664,-4.97337 -37.39942,-19.38674 -61.47286,-32.02971 l -43.76987,-22.98721 -61.01523,32.03898 c -33.55836,17.62145 -61.24756,32.175 -61.53153,32.34122 -0.28397,0.16622 -0.359,-0.47731 -0.16672,-1.43006 z"
     id="path877" />
  <path
     style="fill:#0065fc;stroke:#7a7a7a;stroke-width:0.60251"
     d="m 166.04271,446.54393 c 0.13174,-0.57991 5.28635,-30.93079 11.45468,-67.44639 l 11.21516,-66.39198 -2.62406,-3.05506 c -2.24625,-2.61519 -65.55362,-64.99501 -87.747611,-86.46198 -4.069839,-3.93652 -7.18783,-7.35588 -6.92887,-7.59858 0.25896,-0.24271 20.263301,-3.33444 44.454101,-6.87053 52.08023,-7.61282 81.66155,-12.01643 87.08488,-12.96388 l 3.93843,-0.68803 30.40228,-60.81408 c 16.72125,-33.44775 30.53971,-60.814089 30.70768,-60.814089 0.16797,0 11.10362,21.622594 24.30143,48.050209 28.71749,57.50457 36.41828,72.35263 38.04177,73.34909 0.67225,0.41262 13.42311,2.56333 28.33524,4.77934 28.62155,4.25331 92.35648,13.63961 100.76988,14.84047 2.73389,0.39021 4.97071,0.90956 4.97071,1.15411 0,0.57871 -32.03022,32.23418 -67.96278,67.16762 -15.66164,15.22617 -28.60922,28.24039 -28.77241,28.9205 -0.28637,1.19356 4.21958,28.8021 16.36116,100.24682 3.17226,18.66652 5.62275,34.08413 5.44553,34.26134 -0.53963,0.53964 -36.0258,-17.7012 -100.7033,-51.7642 l -20.48535,-10.7888 -3.61507,1.77214 c -1.98828,0.97467 -29.47482,15.36173 -61.08118,31.97124 -31.60637,16.60952 -57.54166,30.19912 -57.63397,30.19912 -0.0923,0 -0.0601,-0.47448 0.0717,-1.0544 z"
     id="path879" />
  <path
     style="fill:#0065fc;stroke:#7a7a7a;stroke-width:0.60251"
     d=""
     id="path881" />
  <path
     style="fill:#f2f2f2;stroke:#f2f2f2;stroke-width:0.60251;fill-opacity:1;stroke-opacity:1"
     d="m 166.8954,445.77652 c 0,-0.37835 4.32734,-26.21946 9.61631,-57.42469 5.28897,-31.20522 10.33134,-61.01461 11.20527,-66.24309 l 1.58896,-9.50632 -2.17376,-2.65278 c -1.19556,-1.45904 -22.91241,-23.04371 -48.25966,-47.96595 -25.34725,-24.92224 -46.085909,-45.51002 -46.085909,-45.75063 0,-0.24061 1.152301,-0.60192 2.560669,-0.80291 1.408369,-0.20099 10.559,-1.57859 20.33473,-3.06133 9.77573,-1.48274 33.56229,-5.01756 52.85902,-7.85515 19.29673,-2.83759 40.26037,-5.97049 46.58585,-6.96199 6.3255,-0.9915 11.59549,-1.80273 11.71111,-1.80273 0.11561,0 13.85152,-27.11297 30.52424,-60.25104 16.67272,-33.13808 30.45729,-60.251048 30.63237,-60.251048 0.17509,0 13.13141,25.418408 28.79184,56.485358 15.66043,31.06694 29.51637,58.13257 30.79099,60.14583 l 2.31748,3.66048 7.61326,1.33037 c 4.18729,0.73171 33.30278,5.11369 64.70108,9.73775 31.3983,4.62406 58.01101,8.61824 59.13935,8.87596 l 2.05152,0.46857 -35.79211,35.23269 c -19.68566,19.37798 -41.32293,40.71757 -48.08282,47.42131 l -12.29071,12.18861 0.37507,4.43706 c 0.20629,2.44039 4.99817,32.0691 10.64864,65.8416 5.65046,33.77249 10.19912,62.04035 10.10811,62.81745 -0.15763,1.34603 -0.82142,1.07914 -14.0232,-5.63834 -18.05251,-9.18568 -39.49571,-20.33803 -76.17258,-39.61643 l -29.77928,-15.65283 -3.193,1.56599 c -2.64957,1.29947 -116.44225,60.8284 -117.85096,61.65195 -0.24854,0.1453 -0.45188,-0.0454 -0.45188,-0.42372 z"
     id="path883" />
  <path
     style="fill:#f2f2f2;fill-opacity:1;stroke:#f2f2f2;stroke-width:0.60251;stroke-opacity:1"
     d="m 135.12774,509.97281 c -5.53749,-1.5586 -10.49046,-4.49046 -14.66617,-8.68147 -6.54172,-6.56572 -9.57723,-14.55261 -8.72808,-22.96498 0.37732,-3.73815 7.88072,-48.80537 19.61139,-117.7908 l 5.43008,-31.93305 -6.47953,-6.32303 C 43.805451,237.87843 27.045106,221.10961 24.58679,216.51739 c -2.806293,-5.24224 -3.675191,-14.51278 -1.97282,-21.04863 1.315514,-5.0506 3.639562,-9.03164 7.950949,-13.61978 5.934745,-6.31572 8.773774,-7.52632 23.255406,-9.91641 C 64.65519,170.14434 169.39714,154.46569 187.6461,151.9004 l 7.19421,-1.0113 11.68968,-23.81275 c 6.42933,-13.09701 21.73594,-44.008643 34.0147,-68.692514 21.73549,-43.694649 22.42214,-44.976558 26.00314,-48.5453644 13.46211,-13.4163089 37.37594,-10.7824756 47.07556,5.1848324 2.5778,4.243512 16.44049,31.985608 45.89281,91.840916 11.73632,23.85148 21.60824,43.53287 21.9376,43.73643 0.32936,0.20355 4.58428,0.94362 9.45537,1.64459 22.13735,3.18566 116.84429,17.20599 128.65656,19.0462 16.01313,2.49465 18.87786,3.64984 25.41528,10.24857 8.08405,8.15986 10.5973,16.27457 8.68706,28.04851 -1.48569,9.15723 -0.71742,8.34289 -87.22383,92.45349 -14.96776,14.55323 -27.21411,26.70698 -27.21411,27.00835 0,0.30136 2.86172,17.13392 6.35938,37.40569 9.18249,53.21994 17.54392,103.40239 18.38891,110.36403 0.63539,5.23472 0.6021,6.52253 -0.25376,9.81695 -3.94761,15.19531 -17.12052,24.93827 -32.55388,24.07752 -4.67712,-0.26085 -4.96377,-0.37419 -19.88284,-7.862 -16.37249,-8.21726 -27.62819,-14.07842 -85.46166,-44.50236 L 288.0375,438.47097 251.41624,457.7208 c -56.45475,29.67524 -78.40372,41.0921 -90.6312,47.14225 l -11.23169,5.55744 -5.6386,0.21925 c -3.75305,0.14592 -6.69143,-0.0771 -8.78701,-0.66693 z m 32.53583,-60.34873 c 2.39424,-1.2055 23.19668,-12.08572 46.22764,-24.17827 52.8473,-27.74779 73.09222,-38.09949 74.50256,-38.09492 0.61188,0.002 21.31167,10.60215 45.99954,23.55594 57.78001,30.3173 77.70092,40.53033 78.16019,40.07105 0.48503,-0.48502 -1.04518,-9.93309 -12.82694,-79.19852 l -9.87319,-58.04492 2.16969,-2.59565 c 1.19334,-1.42762 17.6365,-17.7392 36.54035,-36.24798 62.49435,-61.18824 61.62197,-60.3149 60.94689,-61.01361 -0.34758,-0.35975 -13.7685,-2.5404 -29.82427,-4.8459 -49.04522,-7.04253 -104.39184,-15.08452 -106.54587,-15.48134 l -2.03976,-0.37577 -31.25712,-62.87998 C 302.65186,95.71022 288.33003,67.414226 288.017,67.414226 c -0.31304,0 -14.66083,28.333054 -31.88397,62.962344 -17.22315,34.62929 -31.6053,62.96234 -31.96033,62.96234 -0.35504,0 -6.13496,0.82441 -12.84426,1.83203 -14.59681,2.19218 -77.96823,11.46675 -104.98534,15.36488 -10.604188,1.53001 -19.550727,3.0442 -19.881198,3.36488 -0.666485,0.64671 1.296313,2.61092 59.780668,59.82395 20.95056,20.49514 38.4971,37.88225 38.9923,38.63802 0.82073,1.25259 0.55413,3.41725 -3.01396,24.47226 -5.02232,29.63628 -16.15087,94.69873 -18.06686,105.62683 -1.60116,9.13249 -1.62864,9.35414 -1.15993,9.35414 0.17396,0 2.27522,-0.98632 4.66945,-2.19182 z"
     id="path885" />
  <path
     style="fill:#f2f2f2;fill-opacity:1;stroke:#f2f2f2;stroke-width:0.60251;stroke-opacity:1"
     d="m 167.49791,444.81952 c 0,-0.57943 3.81889,-23.71175 8.48643,-51.40513 4.66754,-27.6934 9.65169,-57.26544 11.0759,-65.71565 l 2.58948,-15.36401 -5.20143,-5.55089 C 181.58751,303.73085 159.91084,282.18127 136.27791,258.89588 101.1374,224.27213 93.508362,216.47557 94.403435,216.10189 95.307274,215.72456 215.11551,197.67801 224.25577,196.54242 l 2.83317,-0.35199 14.27447,-28.3881 c 7.85097,-15.61346 15.00898,-29.74375 15.90669,-31.40066 0.89773,-1.6569 8.07931,-15.82343 15.95907,-31.48117 7.87977,-15.657738 14.51277,-28.468617 14.73999,-28.468617 0.22723,0 12.91151,24.605017 28.18728,54.677827 26.65297,52.47062 32.16385,63.1088 33.26978,64.22377 0.6539,0.65924 14.57626,2.85889 76.54868,12.09423 59.31835,8.83983 56.19657,8.33675 55.93579,9.01422 -0.20382,0.52951 -17.65983,17.86938 -68.12577,67.67252 l -26.95149,26.59752 0.6162,5.01895 c 0.33891,2.76043 4.9315,31.31854 10.20575,63.46247 11.06187,67.41662 10.66881,64.76987 9.61884,64.76987 -1.09064,0 -33.04874,-16.36383 -79.17817,-40.54241 -21.52374,-11.28159 -39.43876,-20.51198 -39.81115,-20.51198 -0.37239,0 -10.95955,5.37176 -23.52701,11.93724 -48.12566,25.14176 -86.33136,45.15208 -91.68676,48.02116 -4.56936,2.44796 -5.57322,2.79601 -5.57322,1.93225 z"
     id="path887" />
  <path
     style="fill:#f2f2f2;fill-opacity:1;stroke:#f2f2f2;stroke-width:0.60251;stroke-opacity:1"
     d="m 167.49983,444.42223 c 0.001,-0.7385 0.40089,-3.64733 0.88852,-6.46407 0.48763,-2.81674 1.01119,-6.07029 1.16347,-7.23013 0.15229,-1.15983 1.09353,-6.85355 2.09166,-12.65272 0.99811,-5.79916 1.9649,-11.56067 2.1484,-12.80334 0.46935,-3.17843 0.99285,-6.41212 1.27648,-7.88487 0.13295,-0.69035 0.38649,-2.22584 0.56344,-3.4122 0.17694,-1.18637 0.44807,-2.81315 0.60251,-3.61507 0.15444,-0.80191 0.42556,-2.42869 0.60251,-3.61506 0.17695,-1.18637 0.44808,-2.81315 0.60251,-3.61506 0.15444,-0.80192 0.42557,-2.4287 0.60251,-3.61507 0.17695,-1.18636 0.45654,-2.82399 0.62131,-3.63918 0.28228,-1.3965 2.46489,-14.42181 3.07527,-18.35245 0.34324,-2.21033 1.33864,-7.96921 1.6791,-9.71444 0.13727,-0.70361 0.41601,-2.33039 0.61943,-3.61507 0.60764,-3.8374 0.76888,-4.80652 3.0641,-18.41667 l 2.20385,-13.06835 -1.54346,-2.02359 c -0.8489,-1.11297 -22.44419,-22.72409 -47.98951,-48.0247 -25.54533,-25.30062 -46.228477,-46.19511 -45.962549,-46.43218 0.403241,-0.3595 8.247469,-1.73401 15.546269,-2.7241 0.99414,-0.13485 2.89205,-0.43448 4.21757,-0.66583 2.91719,-0.50915 3.32946,-0.56804 7.53138,-1.07584 1.8226,-0.22026 3.7205,-0.51064 4.21758,-0.64529 0.81229,-0.22005 3.58796,-0.65408 7.83263,-1.22482 0.82845,-0.11139 2.31967,-0.34649 3.31381,-0.52246 2.17947,-0.38577 24.43694,-3.77541 27.41423,-4.17497 1.15983,-0.15566 12.14058,-1.79065 24.40167,-3.63331 12.26109,-1.84266 23.64226,-3.52821 25.2915,-3.74566 1.64924,-0.21745 3.68271,-0.49569 4.51883,-0.6183 0.83612,-0.12262 3.01143,-0.38724 4.83402,-0.58805 1.82259,-0.20081 3.61482,-0.6799 3.98271,-1.06465 0.36791,-0.38475 10.46188,-20.12957 22.43106,-43.87738 11.96918,-23.74782 22.80774,-45.16706 24.08568,-47.59833 1.27794,-2.43127 4.97006,-9.639731 8.20469,-16.018811 3.23464,-6.379079 6.08594,-11.598326 6.33621,-11.598326 0.25028,0 8.94051,16.606694 19.31162,36.903767 38.36777,75.08871 40.62387,79.44211 42.02384,81.08961 0.8956,1.05395 3.42389,1.60781 16.72042,3.6628 12.66724,1.95773 41.42011,6.31498 50.00837,7.57833 4.48,0.65901 18.82618,2.78587 20.1841,2.99234 3.59889,0.54721 6.99586,1.08215 7.83264,1.23345 0.49707,0.0899 2.25941,0.34151 3.91632,0.55918 1.6569,0.21767 3.69037,0.49717 4.51883,0.6211 2.88581,0.43172 6.93509,1.06748 7.83263,1.22976 0.49707,0.0899 2.12385,0.32949 3.61506,0.53248 1.49122,0.20298 3.25356,0.47411 3.91632,0.60251 0.66276,0.12839 2.42511,0.39952 3.91632,0.60251 1.49121,0.20298 3.38912,0.50313 4.21757,0.667 0.82846,0.16387 2.45523,0.47016 3.61507,0.68064 1.15983,0.21049 2.3293,0.50927 2.59881,0.66396 0.42111,0.2417 -20.04642,20.6533 -81.88717,81.66339 l -13.31346,13.13463 1.43163,9.46909 c 0.7874,5.20801 3.16616,20.04316 5.28613,32.96701 2.11997,12.92385 4.0145,24.59328 4.21005,25.93207 0.19556,1.33879 0.46433,2.99899 0.59728,3.68934 0.26558,1.37901 0.6975,4.0267 1.26172,7.73424 0.20172,1.32552 0.87944,5.39247 1.50603,9.03765 0.6266,3.64519 1.29032,7.72299 1.47494,9.06178 0.18462,1.33879 0.46203,3.09028 0.61646,3.8922 0.15444,0.80192 0.42557,2.4287 0.60251,3.61506 0.17695,1.18637 0.44808,2.81315 0.60251,3.61507 0.27655,1.43598 0.86714,5.17363 1.19005,7.53138 0.29607,2.16175 0.93259,6.04072 1.23982,7.5555 0.16534,0.81518 0.46032,3.17671 0.65551,5.24784 0.30498,3.23624 0.2156,3.76569 -0.63574,3.76569 -1.10168,0 -16.86086,-7.99624 -59.08562,-29.98016 -15.57489,-8.10893 -31.97824,-16.64206 -36.45188,-18.96252 -4.47364,-2.32046 -11.52394,-5.9858 -15.66733,-8.14521 l -7.53344,-3.92618 -16.26573,8.44724 c -8.94615,4.64598 -35.38036,18.44944 -58.74271,30.67437 -23.36234,12.22492 -43.22259,22.55271 -44.13389,22.95064 -1.52846,0.66743 -1.65675,0.61944 -1.65498,-0.61921 z"
     id="path889" />
  <path
     style="fill:#f2f2f2;fill-opacity:1;stroke:#f2f2f2;stroke-width:0.60251;stroke-opacity:1"
     d=""
     id="path891" />
  <path
     style="fill:#f2f2f2;fill-opacity:1;stroke:#f2f2f2;stroke-width:0.60251;stroke-opacity:1"
     d=""
     id="path893" />
  <path
     style="fill:#f2f2f2;fill-opacity:1;stroke:#f2f2f2;stroke-width:0.60251;stroke-opacity:1"
     d="m 167.49791,443.71043 c 0,-2.38141 1.82502,-13.51912 13.91907,-84.94501 l 7.84913,-46.35592 -47.92656,-47.91877 C 113.40454,236.56026 93.636242,216.3487 93.948215,216.03672 94.338704,215.64624 185.47227,201.70029 224.44038,196.06783 l 2.41527,-0.3491 7.96124,-15.80079 c 44.67726,-88.671606 52.28475,-103.466057 53.20356,-103.466057 0.563,0 8.59233,15.40833 33.43782,64.167367 26.14461,51.30851 27.10171,53.10859 28.82407,54.21144 1.51299,0.96878 7.00586,1.89553 44.66327,7.53557 73.65562,11.03157 86.03833,12.96349 86.83806,13.54827 0.90461,0.66146 -2.22264,3.82894 -67.2108,68.07545 l -27.36856,27.05623 0.73922,5.16309 c 0.88742,6.1983 7.76678,48.74321 14.52288,89.8158 2.69822,16.40335 5.06382,31.6544 5.2569,33.89122 0.32186,3.72878 0.255,4.06694 -0.80408,4.06694 -1.68053,0 -16.5942,-7.61684 -96.0121,-49.03618 l -22.58241,-11.77755 -11.15818,5.77337 c -6.13699,3.17535 -32.84855,17.11287 -59.35901,30.97226 -26.51046,13.85939 -48.67531,25.38016 -49.25523,25.60172 -0.88572,0.3384 -1.05439,0.0494 -1.05439,-1.80645 z"
     id="path895" />
  <path
     style="fill:#f2f2f2;fill-opacity:1;stroke:#f2f2f2;stroke-width:0.60251;stroke-opacity:1"
     d="m 167.22057,445.22698 c -0.29335,-0.47465 5.65973,-36.65861 19.23693,-116.92572 1.53335,-9.065 2.39657,-15.73455 2.10548,-16.26779 -0.27134,-0.49707 -21.8032,-22.16715 -47.84858,-48.15573 -27.20736,-27.14802 -47.130019,-47.47719 -46.825883,-47.78132 0.673514,-0.67351 3.422316,-1.10735 71.500603,-11.2849 31.14979,-4.65683 57.65279,-8.62481 58.89554,-8.81774 2.81909,-0.43766 0.34577,4.07163 29.87701,-54.47077 28.09211,-55.689474 32.7158,-64.614417 33.62644,-64.9078 0.96892,-0.31216 1.61361,0.898486 27.02458,50.74881 25.60847,50.23776 31.84798,62.32032 33.77983,65.41333 1.87495,3.0019 -4.21993,1.87788 73.46606,13.54861 53.59006,8.05082 59.91774,9.06164 60.48674,9.6625 0.20174,0.21304 -21.15716,21.72364 -47.46424,47.80133 l -47.83106,47.41397 2.23118,14.12197 c 1.22715,7.76708 5.06271,31.47427 8.52347,52.68264 3.46077,21.20837 7.10745,43.8477 8.10374,50.30962 0.9963,6.46193 1.93095,12.47091 2.077,13.35331 0.51687,3.12287 -0.82367,3.06674 -7.84684,-0.32854 -7.65009,-3.69836 -29.60248,-15.04847 -77.39296,-40.01473 -18.72302,-9.7811 -34.31297,-17.78204 -34.64435,-17.77987 -0.33139,0.002 -7.38076,3.54428 -15.66528,7.87136 -75.4789,39.42327 -104.24179,54.37127 -104.62099,54.37127 -0.24528,0 -0.60277,-0.25371 -0.79442,-0.56381 z"
     id="path897" />
  <path
     style="fill:#f2f2f2;fill-opacity:1;stroke:#f2f2f2;stroke-width:0.60251;stroke-opacity:1"
     d=""
     id="path899" />
  <path
     style="fill:#f2f2f2;fill-opacity:1;stroke:#f2f2f2;stroke-width:0.60251;stroke-opacity:1"
     d="m 134.35533,509.31605 c -5.40301,-1.71512 -9.3001,-4.12725 -13.55198,-8.38811 -3.85126,-3.85938 -7.04673,-9.19811 -8.13429,-13.59011 -1.4679,-5.928 -1.5307,-5.49845 15.712,-107.46846 4.64594,-27.4752 8.36625,-50.4219 8.26736,-50.99269 -0.0989,-0.57079 -14.68524,-15.20279 -32.41411,-32.51556 -43.405246,-42.38654 -65.086991,-63.93769 -72.964585,-72.5251 -7.760255,-8.4595 -8.867154,-10.96262 -9.016247,-20.38922 -0.145835,-9.22062 2.834893,-15.90939 10.235379,-22.96826 6.765603,-6.45329 2.514559,-5.55278 83.131493,-17.61003 21.07659,-3.15227 47.52243,-7.08107 58.76852,-8.73066 11.2461,-1.6496 20.49869,-3.06152 20.56132,-3.1376 0.0626,-0.0761 15.28697,-30.64042 33.83188,-67.920752 21.77865,-43.781062 34.58677,-68.87212 36.1715,-70.859838 5.21854,-6.5455762 13.73262,-10.4790742 22.68206,-10.4790742 9.20667,0 15.67735,2.6287226 21.93171,8.9097782 3.75487,3.770899 4.07645,4.38113 31.75631,60.261562 41.87047,84.528624 39.41666,79.823854 41.90206,80.340234 1.14651,0.23821 18.89352,2.90449 39.4378,5.92506 96.23079,14.14857 106.89882,15.83484 112.27964,17.74771 7.11871,2.53068 15.45712,11.71492 17.80058,19.60623 1.09596,3.69047 1.26868,12.71957 0.32189,16.82688 -1.45425,6.30876 -8.0493,13.48937 -49.96939,54.40606 -17.72887,17.30451 -39.41924,38.5815 -48.20083,47.28218 l -15.96653,15.81943 4.12583,24.27007 c 18.616,109.50816 21.0524,124.51255 20.91528,128.80564 -0.22159,6.93771 -4.59957,15.64843 -10.42692,20.74604 -6.52516,5.70806 -13.66502,8.10792 -22.3471,7.51134 l -5.32288,-0.36576 -17.57252,-8.89358 c -9.66489,-4.89147 -40.03681,-20.69086 -67.49315,-35.10975 -27.45634,-14.41889 -50.66862,-26.4985 -51.58286,-26.84358 -1.50536,-0.56822 -2.99192,0.0727 -15.75301,6.79123 -42.15923,22.19641 -89.78193,47.06845 -105.7937,55.25317 l -18.19665,9.30156 -5.60252,0.11429 c -4.23939,0.0865 -6.55648,-0.18853 -9.52334,-1.13033 z m 47.78122,-66.88672 c 9.34624,-4.88529 27.56722,-14.43098 40.49107,-21.21264 34.97353,-18.352 64.42615,-33.2669 65.69251,-33.2669 1.12084,0 24.21445,11.80699 67.76355,34.64523 42.48761,22.28156 55.5054,28.78494 56.20944,28.08089 0.88164,-0.88163 0.39516,-4.0184 -11.65109,-75.1256 -5.61839,-33.16449 -10.21525,-60.78478 -10.21525,-61.37842 0,-1.22957 7.01212,-8.28968 57.55721,-57.95111 40.61038,-39.90042 42.28636,-41.61138 41.50597,-42.37216 -0.74166,-0.72303 -13.37066,-2.75569 -49.05481,-7.8955 -16.40335,-2.36267 -43.10963,-6.23519 -59.34728,-8.60562 l -29.52302,-4.30984 -31.36203,-62.62138 C 302.95371,95.974529 288.52987,67.691266 288.14986,67.564601 c -0.40046,-0.133493 -8.32846,15.047716 -18.85801,36.110909 -9.99189,19.98768 -24.23902,48.27093 -31.66028,62.85169 l -13.49322,26.51046 -38.71353,5.64871 c -41.41833,6.04338 -92.717481,13.65103 -96.367417,14.29128 -1.222615,0.21446 -2.360944,0.7496 -2.529629,1.18918 -0.315088,0.8211 19.833196,21.01551 70.632876,70.7946 15.02581,14.72393 27.55783,27.21299 27.84892,27.75345 0.73957,1.37311 -0.27954,7.84889 -12.04569,76.54332 -5.65733,33.02924 -10.28606,60.64831 -10.28606,61.37571 0,1.03583 0.26725,1.25265 1.23279,1.00015 0.67803,-0.1773 8.87971,-4.31944 18.22594,-9.20473 z"
     id="path901" />
  <path
     style="fill:#f2f2f2;fill-opacity:1;stroke:#f2f2f2;stroke-width:0.60251;stroke-opacity:1"
     d="m 135.2636,509.76031 c -7.8151,-2.36167 -14.32289,-7.13864 -18.69158,-13.72036 -4.65327,-7.01044 -5.41856,-12.1342 -3.6259,-24.27581 0.47012,-3.18409 1.01149,-6.88461 1.20304,-8.2234 0.19156,-1.3388 0.45707,-2.999 0.59002,-3.68935 0.13295,-0.69035 0.38892,-2.1707 0.56882,-3.28968 0.57329,-3.56575 5.16479,-31.48489 5.48712,-33.36506 0.17043,-0.99414 0.44639,-2.62092 0.61324,-3.61506 0.16686,-0.99414 0.4333,-2.4745 0.59209,-3.28969 0.15879,-0.81518 0.43348,-2.45281 0.61043,-3.63918 0.17694,-1.18637 0.43049,-2.72186 0.56344,-3.4122 0.13295,-0.69035 0.40816,-2.30628 0.61159,-3.59095 1.16658,-7.36733 12.4156,-74.64921 12.67808,-75.82932 0.19663,-0.884 -1.24851,-2.67962 -5.58893,-6.94441 -68.646674,-67.45045 -98.114776,-96.78125 -103.1098,-102.62938 -4.269537,-4.99874 -5.054557,-7.1011 -5.435216,-14.55608 -0.570175,-11.16656 1.451491,-16.35578 9.540602,-24.48883 4.595439,-4.62041 5.594024,-5.32846 8.79881,-6.23882 3.661362,-1.04007 13.884457,-3.13218 17.76526,-3.63559 1.164672,-0.15107 2.79541,-0.41327 3.623861,-0.58266 2.252689,-0.46059 8.373304,-1.40978 11.447699,-1.77531 1.491214,-0.1773 3.253557,-0.4284 3.916318,-0.558 1.132929,-0.22153 4.310402,-0.72918 8.435147,-1.34765 0.994142,-0.14907 3.298744,-0.52034 5.121338,-0.82506 1.822595,-0.30471 4.778403,-0.72681 6.568461,-0.93799 1.790059,-0.21119 3.82353,-0.49147 4.51883,-0.62285 0.6953,-0.13139 1.942,-0.36634 2.77045,-0.52211 0.82845,-0.15577 2.86192,-0.44395 4.51883,-0.64038 1.6569,-0.19643 3.75816,-0.48025 4.66945,-0.6307 3.6157,-0.59694 5.08023,-0.82139 7.68201,-1.17732 3.83525,-0.52466 6.18318,-0.90937 7.23013,-1.18463 0.49707,-0.13069 2.4316,-0.40166 4.29895,-0.60215 1.86735,-0.20048 3.90082,-0.46045 4.51883,-0.57771 0.97405,-0.18481 5.26058,-0.83663 8.05251,-1.22448 0.49707,-0.0691 1.98829,-0.29892 3.31381,-0.51083 2.4796,-0.39641 5.42717,-0.82239 9.64017,-1.3932 1.32552,-0.17959 2.9523,-0.40976 3.61506,-0.51148 0.66276,-0.10172 2.56067,-0.38138 4.21757,-0.62148 1.65691,-0.24008 3.41925,-0.51329 3.91632,-0.60713 0.49707,-0.0938 3.0728,-0.48843 5.72385,-0.87688 2.65105,-0.38844 5.49791,-0.82311 6.32636,-0.96593 0.82845,-0.14282 3.92096,-0.58601 6.87223,-0.98486 l 5.36597,-0.72519 28.30547,-56.966854 c 35.27398,-70.991497 39.68101,-79.483539 43.3242,-83.482689 3.09478,-3.3971646 8.52689,-6.6070175 13.35827,-7.8934663 3.97111,-1.0573831 12.45527,-1.0573831 16.42638,0 5.05453,1.3458648 10.24266,4.4854735 13.849,8.3807453 3.04689,3.291005 6.19727,9.335442 36.61227,70.245662 18.30319,36.654642 33.66877,67.257882 34.14573,68.007192 0.47696,0.74931 1.27457,1.48624 1.77246,1.63763 0.49789,0.15139 18.39312,2.84926 39.76718,5.99527 21.37406,3.14602 39.81088,5.8638 40.97071,6.03952 6.64748,1.00709 27.39751,4.12019 30.72804,4.61008 2.15397,0.31683 4.59414,0.68163 5.42259,0.81068 0.82845,0.12904 2.72636,0.42386 4.21757,0.65513 1.49122,0.23128 3.14462,0.50061 3.67422,0.59851 0.52961,0.0979 2.4009,0.36057 4.15842,0.58369 1.75752,0.22312 3.76438,0.51667 4.45967,0.65234 2.20587,0.43039 7.81243,1.38281 10.05251,1.70767 1.18839,0.17235 2.54404,0.44962 3.01255,0.61616 0.46851,0.16654 1.60439,0.42951 2.52419,0.58438 7.76084,1.3067 18.65127,11.76645 21.20526,20.36666 0.84932,2.85997 1.31263,13.69467 0.70446,16.47393 -0.56982,2.604 -2.13257,5.52971 -4.97071,9.30597 -3.03181,4.03392 -27.43701,28.74873 -54.46073,55.15161 -8.45021,8.25608 -24.2429,23.78911 -35.09486,34.51786 l -19.73085,19.50682 3.86487,22.68383 c 2.12567,12.4761 3.99366,23.4972 4.15109,24.49135 0.15742,0.99414 0.57294,3.43431 0.92337,5.42259 0.35043,1.98829 0.76124,4.42845 0.91291,5.4226 0.44238,2.8997 1.55997,9.51068 1.88023,11.12232 0.16199,0.81518 0.4393,2.45281 0.61625,3.63918 0.17695,1.18637 0.43049,2.72186 0.56344,3.4122 0.13295,0.69036 0.39948,2.23849 0.59228,3.44032 0.19281,1.20183 0.50831,3.16845 0.70111,4.37028 0.1928,1.20182 0.46657,2.76082 0.60837,3.46443 0.1418,0.70361 0.79065,4.66842 1.4419,8.81068 0.65125,4.14226 1.47369,9.02259 1.82765,10.84519 0.35397,1.82259 0.78453,4.39832 0.9568,5.72385 0.30295,2.33092 1.18466,7.6923 1.69668,10.31695 0.13727,0.70361 0.4181,2.33039 0.62407,3.61507 0.20597,1.28467 0.52146,3.25129 0.7011,4.37027 0.17964,1.11898 0.43955,2.61019 0.57758,3.31381 0.13802,0.70361 0.39966,2.49938 0.5814,3.99059 0.18175,1.49121 0.47063,3.43758 0.64195,4.32525 1.94915,10.09895 0.82116,17.11439 -3.92461,24.40874 -4.65517,7.1551 -11.27551,11.7528 -19.94118,13.84878 -0.49708,0.12023 -3.58097,0.2325 -6.85308,0.24951 l -5.94933,0.0309 -13.33101,-6.75632 c -13.80582,-6.99695 -26.40689,-13.52731 -60.32684,-31.2637 -10.93556,-5.7181 -23.1364,-12.09356 -27.11297,-14.16769 -3.97657,-2.07413 -13.77835,-7.19616 -21.78174,-11.3823 -8.00338,-4.18615 -15.13181,-7.61117 -15.84095,-7.61117 -1.1174,0 -13.63656,6.17658 -25.03839,12.35319 -3.49753,1.89468 -6.95646,3.71646 -22.29289,11.74146 -3.97657,2.0808 -9.39916,4.92975 -12.05021,6.33101 -2.65105,1.40127 -9.15816,4.79452 -14.46025,7.54057 -5.30209,2.74605 -18.85858,9.79683 -30.12552,15.66841 -35.55409,18.52842 -33.49021,17.60224 -39.76569,17.84509 -3.99668,0.15466 -6.37321,-0.0774 -9.03766,-0.8826 z m 40.60368,-64.35169 c 14.11553,-7.30788 22.16451,-11.50757 36.2164,-18.89653 6.13055,-3.22364 15.75565,-8.23889 21.38912,-11.145 5.63348,-2.90611 11.59833,-6.0304 13.25523,-6.94287 9.42426,-5.19002 40.24565,-20.47443 41.28718,-20.47443 1.14493,0 23.5486,11.06107 43.06429,21.26157 4.63933,2.42489 13.04435,6.8028 18.67782,9.72869 5.63347,2.92589 11.59833,6.06249 13.25523,6.97023 10.61729,5.81672 47.98224,24.68772 48.89664,24.69503 0.46506,0.004 0.59497,-0.84364 0.39174,-2.5551 -0.22575,-1.90109 -14.40784,-87.51997 -16.71669,-100.9205 -0.35556,-2.06368 -0.82698,-4.8671 -1.24114,-7.38076 -0.1365,-0.82845 -0.39569,-2.38744 -0.57598,-3.46443 -0.18028,-1.07699 -0.44305,-2.70377 -0.58393,-3.61506 -0.14088,-0.9113 -0.86086,-5.39177 -1.59997,-9.9566 -1.17982,-7.28677 -1.24047,-8.49286 -0.49699,-9.88246 0.75757,-1.41596 69.04168,-69.31006 85.91699,-85.42628 7.33704,-7.00699 12.57839,-12.83506 12.03324,-13.38022 -0.4733,-0.4733 -15.89105,-3.08568 -31.12851,-5.27441 -1.15983,-0.1666 -5.10555,-0.72797 -8.76826,-1.24749 -3.66271,-0.51952 -7.32296,-1.04783 -8.13389,-1.17402 -0.81093,-0.12619 -2.71953,-0.39926 -4.24133,-0.60682 -1.5218,-0.20755 -3.41971,-0.47868 -4.21757,-0.60251 -1.49377,-0.23182 -6.77636,-1.01763 -8.37954,-1.24649 -7.96023,-1.13639 -10.83854,-1.5635 -11.85329,-1.75892 -0.67044,-0.12912 -2.65697,-0.41731 -4.41449,-0.64044 -1.75752,-0.22312 -3.65543,-0.49425 -4.21757,-0.60251 -0.56214,-0.10826 -2.46005,-0.37939 -4.21757,-0.60251 -1.75753,-0.22312 -3.65544,-0.49425 -4.21758,-0.60251 -0.56214,-0.10826 -2.46005,-0.37939 -4.21757,-0.60251 -1.75752,-0.22312 -3.76438,-0.52018 -4.45968,-0.66013 -0.69529,-0.13995 -2.34869,-0.38979 -3.67421,-0.5552 -1.32553,-0.16541 -2.97892,-0.4106 -3.67422,-0.54488 -0.6953,-0.13429 -2.70215,-0.42671 -4.45967,-0.64983 -1.75753,-0.22312 -3.65543,-0.49425 -4.21758,-0.60251 -0.56214,-0.10826 -2.48667,-0.36962 -4.27672,-0.5808 -1.79006,-0.21118 -4.74587,-0.63653 -6.56847,-0.94522 -1.82259,-0.30867 -4.39832,-0.72748 -5.72384,-0.93067 -1.32553,-0.20318 -2.44413,-0.41138 -2.48579,-0.46265 -0.0417,-0.0513 -14.24345,-28.22292 -31.55951,-62.60367 -17.31607,-34.380756 -31.68802,-62.510464 -31.93767,-62.510464 -0.24964,0 -7.84389,14.708787 -16.87612,32.686194 -9.03221,17.9774 -19.46819,38.65104 -23.19106,45.94142 -3.72287,7.29038 -10.30864,20.3046 -14.63504,28.9205 -4.3264,8.6159 -8.22413,16.12944 -8.66163,16.69674 -0.89142,1.15593 -0.73327,1.12247 -15.09025,3.19239 -5.72447,0.82533 -11.35708,1.64645 -12.51691,1.82472 -1.15983,0.17826 -23.39247,3.43972 -49.40586,7.24767 -58.749931,8.60009 -60.853554,8.93795 -60.853554,9.77366 0,0.42675 27.364034,27.78161 76.982584,76.95678 l 21.85286,21.6576 -0.26509,2.72271 c -0.14581,1.49749 -0.54341,4.48506 -0.88357,6.63903 -0.34016,2.15398 -0.77307,5.01169 -0.96202,6.35048 -0.18895,1.33879 -0.46991,3.09028 -0.62435,3.8922 -0.15443,0.80192 -0.42556,2.42869 -0.60251,3.61506 -0.17694,1.18637 -0.44807,2.81315 -0.60251,3.61506 -0.15443,0.80192 -0.42556,2.4287 -0.60251,3.61507 -0.17694,1.18636 -0.45653,2.82399 -0.62131,3.63918 -0.16477,0.81518 -0.83572,4.73571 -1.49099,8.71228 -0.65527,3.97657 -1.31695,7.90795 -1.47039,8.7364 -0.70749,3.81971 -0.97869,5.38668 -1.56419,9.03766 -1.24291,7.75045 -12.65378,75.04333 -12.94978,76.3682 -0.21961,0.98303 -0.028,1.35565 0.69724,1.35565 0.55006,0 6.0456,-2.61215 12.21231,-5.80477 z"
     id="path903" />
  <path
     style="fill:#f2f2f2;fill-opacity:1;stroke:#f2f2f2;stroke-width:0.60251;stroke-opacity:1"
     d="m 167.22003,442.92887 c 0.37717,-2.709 10.38195,-62.80753 17.42743,-104.68619 1.784,-10.60419 3.43504,-20.87023 3.66897,-22.81343 l 0.42535,-3.5331 -47.77203,-47.55447 c -34.35924,-34.20277 -47.588378,-47.73812 -47.117938,-48.20856 0.816443,-0.81644 -0.849541,-0.55011 71.236058,-11.38775 32.97238,-4.9572 60.36152,-9.14326 60.86474,-9.30235 0.50323,-0.1591 13.16028,-24.48924 28.12677,-54.06698 28.96267,-57.237847 32.70032,-64.416972 33.71299,-64.754529 0.35332,-0.117772 1.10047,0.484992 1.66036,1.339475 0.55987,0.854483 12.82499,24.656124 27.25581,52.892544 29.60276,57.92294 31.68405,61.88835 33.18106,63.21877 1.74871,1.55409 1.1465,1.45323 76.38655,12.79423 53.88223,8.12171 55.57355,8.3945 56.21193,9.06643 0.23323,0.2455 -21.07392,21.79702 -47.34922,47.8923 l -47.77328,47.44595 0.65176,4.14682 c 0.35846,2.28075 4.96201,30.8531 10.2301,63.4941 11.45182,70.95531 10.546,64.81995 9.65157,65.37274 -0.40577,0.25079 -4.29927,-1.3092 -8.94476,-3.58384 -7.73991,-3.78982 -45.6421,-23.27575 -52.20948,-26.84147 -1.6569,-0.89961 -15.44928,-8.08962 -30.64974,-15.97782 l -27.63718,-14.34218 -4.57042,2.2615 c -2.51373,1.24383 -29.45989,15.25036 -59.88034,31.12562 -30.42046,15.87526 -55.73194,28.86411 -56.24773,28.86411 -0.77303,0 -0.86779,-0.50283 -0.53933,-2.86192 z"
     id="path905" />
  <path
     style="fill:#f2f2f2;fill-opacity:1;stroke:#f2f2f2;stroke-width:0.60251;stroke-opacity:1"
     d="m 135.11337,509.96393 c -10.76627,-3.01134 -20.39013,-12.66364 -22.75053,-22.81777 -0.48716,-2.09567 -0.57592,-5.05973 -0.27327,-9.12503 0.24655,-3.31162 5.83269,-38.25054 12.41366,-77.64204 l 11.96539,-71.6209 -34.3431,-33.77137 C 53.682435,247.3502 28.38377,221.8502 25.7457,217.99912 c -2.816907,-4.11214 -3.933868,-9.09414 -3.707231,-16.53542 0.114025,-3.74385 0.567304,-6.50581 1.458705,-8.88829 2.296423,-6.13774 9.887093,-14.59104 15.308621,-17.04835 5.215469,-2.36392 15.728992,-4.06313 127.961625,-20.68137 15.33881,-2.27121 27.96983,-4.23226 28.06892,-4.35788 0.0991,-0.12561 11.79342,-23.68112 25.98738,-52.345551 38.08691,-76.915789 41.98794,-84.382103 46.33614,-88.6841354 6.18557,-6.119897 14.18199,-8.53489241 25.27757,-7.634072 8.36305,0.6789737 15.66228,5.3568933 21.02275,13.4730194 1.3132,1.988285 17.007,32.963936 34.87512,68.834784 21.64852,43.460135 32.93374,65.497865 33.82505,66.053415 0.73566,0.45854 2.55764,0.99104 4.04886,1.18334 1.49121,0.1923 16.53891,2.40013 33.43933,4.90627 111.45217,16.52717 112.22164,16.65398 117.62397,19.38565 3.67559,1.85854 9.31768,7.08527 12.19299,11.29534 3.42921,5.02112 4.26626,8.06502 4.3799,15.9274 0.1171,8.10172 -0.41715,10.19593 -3.94392,15.45983 -2.55176,3.80865 -36.23854,37.7834 -83.38698,84.09984 l -27.24283,26.76208 1.49388,8.43515 c 4.60898,26.02462 20.51388,120.72219 22.18808,132.10753 0.773,5.25681 1.32741,11.05597 1.23202,12.88701 -0.51968,9.97513 -8.21021,20.73073 -18.05475,25.25046 -4.73521,2.17399 -9.04944,2.93673 -15.18004,2.68378 l -4.96546,-0.20487 -19.43621,-9.90611 C 395.85927,495.0096 366.90034,479.96301 342.196,467.02108 317.49166,454.07916 295.2058,442.46446 292.67185,441.21063 l -4.60718,-2.27969 -8.0156,3.99738 c -4.40858,2.19855 -25.09677,12.98439 -45.97376,23.96851 -20.87698,10.98412 -48.39665,25.29354 -61.15481,31.7987 L 149.72385,510.5231 144,510.68583 c -3.67152,0.10438 -6.85789,-0.15446 -8.88663,-0.7219 z m 35.55776,-62.14468 c 3.72251,-1.86677 24.39163,-12.61155 45.93138,-23.87728 37.04505,-19.37532 64.71666,-33.4973 69.73921,-35.59084 l 2.25804,-0.94121 18.82983,9.51933 c 10.3564,5.23562 30.01714,15.39017 43.69051,22.56564 13.67338,7.17548 32.92359,17.16247 42.77824,22.19331 17.84026,9.10754 17.91838,9.14007 18.10703,7.54085 0.19976,-1.69349 -2.67969,-19.50784 -14.40391,-89.11285 -3.94608,-23.4273 -7.17468,-43.66965 -7.17468,-44.983 0,-2.36459 0.47946,-2.86307 49.1046,-51.05283 27.00753,-26.76571 49.1046,-48.99355 49.1046,-49.3952 0,-0.40164 -0.61004,-0.8777 -1.35565,-1.05789 -3.52772,-0.85256 -24.43919,-4.01879 -74.25941,-11.2437 -62.72895,-9.09692 -61.22728,-8.86658 -61.79996,-9.47978 -0.24073,-0.25776 -9.67466,-18.90547 -20.96428,-41.43936 -11.28962,-22.5339 -25.37937,-50.56954 -31.31057,-62.301436 l -10.78398,-21.330726 -2.13557,3.857923 c -1.17457,2.121855 -15.32049,30.021929 -31.43539,62.000179 -16.1149,31.97824 -29.66984,58.51329 -30.12209,58.96679 -0.54325,0.54474 -18.06698,3.35217 -51.64149,8.27333 -61.26178,8.97941 -82.160412,12.14122 -84.559808,12.79328 l -1.807531,0.49122 7.032731,7.18538 c 3.868003,3.95197 26.166778,26.02891 49.552818,49.05987 38.98174,38.38985 42.5204,42.03776 42.52376,43.8366 0.006,3.07544 -1.17702,10.35661 -12.06947,74.30025 -5.62087,32.99702 -10.21976,60.58447 -10.21976,61.30544 0,0.72097 0.14009,1.31085 0.3113,1.31085 0.17121,0 3.35698,-1.52736 7.0795,-3.39414 z"
     id="path907" />
  <path
     style="fill:#f2f2f2;fill-opacity:1;stroke:#f2f2f2;stroke-width:0.60251;stroke-opacity:1"
     d="m 166.8954,444.74314 c 0,-0.57621 4.92592,-30.54366 10.94649,-66.59433 l 10.9465,-65.54667 -47.69964,-47.79837 c -26.23479,-26.28909 -47.699629,-48.07803 -47.699629,-48.41985 0,-0.34182 0.610042,-0.77265 1.355649,-0.95741 1.677046,-0.41557 31.63617,-5.00071 87.21339,-13.34771 23.36234,-3.50874 42.88435,-6.50087 43.38225,-6.6492 0.49789,-0.14833 1.20288,-0.7472 1.56664,-1.33082 1.26194,-2.02463 11.06749,-21.1743 33.5544,-65.52974 25.18293,-49.673346 26.32253,-51.815902 27.56028,-51.815902 1.0731,0 2.11287,1.929721 22.07576,40.970712 24.34993,47.62065 36.99028,72.06606 38.54098,74.53514 1.01481,1.61581 2.05238,2.40875 3.75002,2.86588 3.0137,0.8115 18.77152,3.29086 70.58957,11.10665 52.98155,7.99127 58.08413,8.80913 59.10157,9.47301 0.62522,0.40796 -11.04911,12.39679 -46.8875,48.15061 l -47.72,47.6074 5.66611,35.08044 c 3.11636,19.29425 7.70302,47.68798 10.19257,63.09719 2.48956,15.4092 4.71358,29.61567 4.94226,31.56992 l 0.41579,3.5532 -1.75029,-0.43223 c -2.15448,-0.53204 -23.74378,-11.35772 -51.75865,-25.95373 -11.59833,-6.04283 -31.30601,-16.31005 -43.79484,-22.81604 -12.48883,-6.50599 -22.85774,-11.82907 -23.04203,-11.82907 -0.26991,0 -73.56874,38.03778 -110.99699,57.60091 -4.69063,2.45171 -8.96093,4.45766 -9.48954,4.45766 -0.52862,0 -0.96112,-0.47144 -0.96112,-1.04765 z"
     id="path909" />
  <path
     style="fill:#f2f2f2;fill-opacity:1;stroke:#f2f2f2;stroke-width:0.60251;stroke-opacity:1"
     d="m 135.34045,510.19298 c -4.36004,-1.02386 -10.78598,-4.9063 -14.83836,-8.96506 -4.7783,-4.78582 -7.65795,-10.19522 -8.57242,-16.10318 -0.81907,-5.29158 -1.54364,-0.40327 12.91614,-87.13837 L 136.3812,328.79282 124.07344,316.63043 C 117.30418,309.94111 95.385052,288.34348 75.36427,268.63569 55.343488,248.9279 35.767814,229.33032 31.862771,225.0855 c -8.204521,-8.91838 -9.462165,-11.39639 -9.99632,-19.69638 -0.602438,-9.36099 1.87491,-16.14276 8.517878,-23.31778 6.271598,-6.7739 9.065421,-7.86652 28.059186,-10.97341 15.568945,-2.54669 111.554055,-16.97685 128.635985,-19.33881 2.65104,-0.36657 5.43657,-0.79296 6.19005,-0.94754 1.14526,-0.23496 6.69389,-10.9766 33.82787,-65.487743 17.85186,-35.863674 33.84763,-67.429906 35.54616,-70.147179 1.69853,-2.717273 4.23498,-5.8710135 5.63655,-7.0083117 13.05975,-10.5972467 33.23171,-8.69527026 43.21778,4.0749237 1.82989,2.340061 13.67994,25.333997 36.45188,70.731512 31.90868,63.612258 33.83872,67.287788 35.54812,67.696898 0.99414,0.23793 23.09121,3.57568 49.1046,7.41724 93.47626,13.80419 99.97793,14.88954 104.7487,17.48612 6.32216,3.44096 12.7865,10.67902 15.12894,16.93976 1.55828,4.16488 2.14632,11.88194 1.29778,17.03129 -0.38871,2.35892 -1.4029,5.16568 -2.61251,7.23013 -2.34363,3.99991 -33.07307,35.1713 -80.25809,81.41237 l -31.46463,30.83517 3.22326,18.76846 c 7.61072,44.31576 20.64269,122.88309 21.30192,128.42535 0.55532,4.66867 0.55428,6.80676 -0.005,9.49712 -1.86219,8.96387 -8.66219,17.71102 -16.90049,21.73986 -5.47274,2.67638 -10.21525,3.62172 -16.40539,3.27013 -5.82943,-0.3311 -3.61926,0.76172 -94.59301,-46.77194 -18.4667,-9.64882 -36.81535,-19.18587 -40.7748,-21.19344 l -7.19898,-3.65013 -8.02856,4.02032 c -4.41551,2.21118 -24.70283,12.75875 -45.08275,23.43906 -20.37992,10.68032 -47.91919,25.01554 -61.19838,31.85606 l -24.14399,12.43731 -5.98153,-0.0605 c -3.28985,-0.0333 -7.03147,-0.30707 -8.31473,-0.60842 z m 79.45453,-85.42527 c 24.85356,-12.97897 51.50852,-26.77353 59.23327,-30.65459 l 14.04497,-7.05646 16.98432,8.56392 c 9.34136,4.71015 30.81192,15.78146 47.71233,24.60291 42.24284,22.04932 58.18239,29.98576 58.86082,29.30733 0.63613,-0.63613 -1.05677,-11.40882 -13.27397,-84.46847 -4.57094,-27.33454 -8.18525,-50.35594 -8.0318,-51.15865 0.24595,-1.28665 43.74755,-44.98192 84.96192,-85.34017 10.44789,-10.23087 13.79802,-13.88871 13.2355,-14.45123 -0.49108,-0.49108 -19.14948,-3.39676 -59.83615,-9.31831 -68.12996,-9.91566 -75.25452,-10.98478 -76.61569,-11.49698 -0.97641,-0.36743 -8.3153,-14.46945 -29.35556,-56.4081 -31.78428,-63.354238 -34.28196,-68.26065 -34.75164,-68.265891 -0.18589,-0.0018 -13.31012,25.685768 -29.16497,57.084091 -33.72353,66.78476 -33.82124,66.97082 -35.49654,67.59425 -1.14972,0.42783 -23.47873,3.80882 -77.79551,11.77954 -53.677601,7.87691 -58.142263,8.59445 -58.142263,9.34438 0,0.39423 40.141843,40.45767 82.995813,82.8337 14.88146,14.71549 15.21331,15.09666 15.20994,17.46978 -0.004,3.11688 -1.54408,12.63788 -12.57133,77.73986 -4.99563,29.49289 -9.26258,54.78854 -9.4821,56.21257 l -0.39912,2.58914 3.24474,-1.45225 c 1.7846,-0.79873 23.57946,-12.0714 48.43302,-25.05037 z"
     id="path911" />
  <path
     style="fill:#f2f2f2;fill-opacity:1;stroke:#f2f2f2;stroke-width:0.60251;stroke-opacity:1"
     d="m 167.14766,442.62762 c 0.22412,-1.73975 5.16646,-31.73474 10.98297,-66.65552 l 10.57548,-63.49234 -47.6585,-47.69452 c -26.21217,-26.23198 -47.658489,-48.00451 -47.658489,-48.38338 0,-0.37887 0.474477,-0.83238 1.054394,-1.00781 1.271093,-0.38449 25.184755,-4.04985 85.104605,-13.04438 24.68786,-3.70588 45.43195,-7.07736 46.09796,-7.49218 1.13259,-0.70541 9.7507,-17.16659 33.443,-63.87841 17.86494,-35.22258 26.62683,-52.139202 27.67698,-53.436086 0.57134,-0.705562 1.32795,-1.104128 1.68137,-0.885702 1.04371,0.645045 2.9766,4.322595 30.46278,57.958808 29.50142,57.56873 29.67106,57.88605 31.75088,59.39412 1.876,1.36029 3.39505,1.61519 69.65378,11.68816 60.13786,9.14246 60.51819,9.20383 61.72423,9.96082 0.67227,0.42195 -10.08938,11.53146 -46.79779,48.31049 l -47.67082,47.76253 5.62619,34.64435 c 10.62549,65.4286 14.75019,91.28613 15.11333,94.74477 0.33677,3.20755 0.27231,3.46443 -0.86937,3.46443 -1.4945,0 -25.25831,-12.00617 -72.74608,-36.75344 -19.55146,-10.18884 -38.00796,-19.75809 -41.01443,-21.26499 l -5.46631,-2.73983 -10.50022,5.44384 c -5.77511,2.99411 -27.44582,14.26238 -48.15711,25.04059 -56.76397,29.54011 -60.56616,31.47885 -61.73511,31.47885 -0.95441,0 -1.03343,-0.371 -0.67372,-3.16317 z"
     id="path913" />
  <path
     style="fill:#f2f2f2;fill-opacity:1;stroke:none"
     d=""
     id="path915" />
  <path
     style="fill:#f2f2f2;fill-opacity:1;stroke:none;stroke-width:0.60251;stroke-opacity:1"
     d="m 166.8954,444.59372 c 0,-1.29702 19.0582,-117.51104 21.38925,-130.4284 0.30465,-1.68818 -2.247,-4.35485 -47.28675,-49.41846 -26.18483,-26.1987 -47.608779,-47.94897 -47.608779,-48.33392 0,-1.22786 -1.398547,-0.98798 57.238499,-9.81752 24.35648,-3.66759 51.10068,-7.74399 59.43156,-9.05866 8.33088,-1.31467 15.29193,-2.39032 15.46901,-2.39032 0.4601,0 10.04666,-18.15331 21.79527,-41.27196 33.93977,-66.785967 37.91009,-74.459991 39.48443,-76.3174 L 288,76.150628 l 1.16013,1.366963 c 1.34174,1.580942 5.07102,8.716479 30.77486,58.884079 22.61545,44.13981 28.69761,55.70008 30.02431,57.06676 1.49,1.53491 4.54612,2.06332 67.33612,11.64275 62.08026,9.47115 64.81683,9.92848 65.13582,10.88548 0.11544,0.34632 -21.08059,21.88987 -47.1023,47.87456 -31.3411,31.29651 -47.31218,47.65396 -47.31213,48.45671 4e-5,0.6665 4.48789,29.00261 9.97299,62.96914 5.48511,33.96653 10.13348,63.45188 10.32973,65.52301 0.33985,3.58662 0.29376,3.76569 -0.96917,3.76569 -1.78524,0 -42.07934,-20.53232 -109.49457,-55.79421 -4.68642,-2.45126 -8.94255,-4.45683 -9.45805,-4.45683 -0.5155,0 -24.20082,12.09634 -52.63404,26.88076 -51.69348,26.87907 -64.77812,33.59291 -67.44683,34.60755 -1.29366,0.49185 -1.42147,0.38131 -1.42147,-1.22932 z"
     id="path929" />
  <path
     style="fill:#f2f2f2;fill-opacity:1;stroke:none;stroke-width:0.60251;stroke-opacity:1"
     d="m 167.08775,442.92887 c 0.20021,-1.90544 4.9836,-31.31755 10.62976,-65.36026 5.64617,-34.0427 10.26575,-62.75388 10.26575,-63.80261 0,-1.72201 -4.58372,-6.50024 -47.29707,-49.30413 -26.01339,-26.06853 -47.297069,-47.70143 -47.297069,-48.0731 0,-1.19832 -3.370886,-0.62565 61.154809,-10.38927 66.60206,-10.07779 70.25498,-10.68838 71.47991,-11.94785 1.1645,-1.19734 9.13089,-16.29562 23.10635,-43.79224 31.3586,-61.697804 36.11119,-70.862831 37.70775,-72.716827 l 1.19867,-1.391955 1.31986,1.677661 c 1.33417,1.695871 6.30312,11.229871 38.5348,73.937401 22.68219,44.12878 21.3823,41.92227 25.35339,43.03652 3.78625,1.0624 12.06047,2.38341 73.93258,11.80359 52.08598,7.93023 54.93715,8.41354 55.24913,9.36547 0.11549,0.35239 -21.07943,21.95008 -47.09983,47.99487 -26.02039,26.04478 -47.3098,47.77269 -47.3098,48.28425 0,0.51156 3.26654,21.2101 7.25899,45.99676 15.05613,93.47425 14.06553,86.33862 11.98593,86.33862 -1.48509,0 -28.88993,-13.86071 -80.23717,-40.58205 -20.78757,-10.81794 -38.07701,-19.66899 -38.42099,-19.66899 -0.91816,0 -8.16448,3.69765 -58.70416,29.95558 -45.89351,23.84402 -62.04473,32.103 -62.78049,32.103 -0.21731,0 -0.23131,-1.559 -0.0311,-3.46444 z"
     id="path931" />
  <path
     style="fill:#f2f2f2;fill-opacity:1;stroke:none;stroke-width:0.60251;stroke-opacity:1"
     d="m 133.59042,509.68467 c -10.65261,-3.40463 -19.87353,-13.76716 -21.69079,-24.37624 -0.89372,-5.21753 -1.22191,-2.98778 12.89471,-87.60835 l 11.4903,-68.87733 -24.9122,-24.45406 C 64.983099,258.83244 26.770455,220.27767 25.003937,217.22692 c -4.417036,-7.62818 -4.453245,-19.48166 -0.08488,-27.78821 2.099327,-3.99193 7.974547,-10.61572 11.231576,-12.66261 5.540259,-3.48178 6.017841,-3.56513 105.270877,-18.37228 28.5718,-4.26251 52.23109,-7.92453 52.5762,-8.13782 0.34512,-0.2133 15.79677,-30.66856 34.33702,-67.678368 18.54024,-37.009808 34.74349,-68.63973 36.00724,-70.288715 5.89706,-7.6947507 15.55714,-11.75360459 26.06808,-10.9529712 10.4204,0.7937362 18.5316,5.7093293 23.45596,14.2149062 2.4633,4.25474 22.25688,43.314232 49.17618,97.041468 9.21481,18.39153 17.11257,33.79751 17.55058,34.23551 0.438,0.438 0.80498,0.98034 0.81552,1.20521 0.0106,0.22486 0.37217,0.8735 0.80361,1.44141 0.89641,1.17997 0.024,1.03346 51.29439,8.61396 53.02257,7.83957 86.07297,12.88924 93.08786,14.22264 8.85559,1.68327 13.08812,3.79271 18.32492,9.13295 7.3046,7.44886 9.84033,14.15818 9.25184,24.47952 -0.39433,6.91594 -1.9395,10.2639 -7.81292,16.9284 -4.28373,4.8607 -48.94258,49.43242 -88.14556,87.97359 -9.93965,9.77185 -18.14847,18.1737 -18.24182,18.67077 -0.0933,0.49707 2.55369,16.90041 5.88231,36.45188 13.38806,78.6379 18.67724,111.40773 18.67156,115.68201 -0.009,6.41185 -3.83664,14.44807 -9.61484,20.1841 -6.54972,6.50191 -14.14583,9.35426 -23.78623,8.93173 l -5.44976,-0.23885 -17.17155,-8.7879 c -9.44435,-4.83334 -38.45523,-19.90177 -64.46862,-33.4854 -26.01339,-13.58363 -49.28077,-25.6962 -51.70528,-26.91682 l -4.40822,-2.2193 -11.25705,5.84658 c -6.19139,3.21561 -28.60936,14.91858 -49.81773,26.00658 -21.20837,11.08801 -47.25939,24.60175 -57.89116,30.03053 l -19.33049,9.8705 -6.2762,-0.0324 c -4.36735,-0.0225 -7.33485,-0.37074 -9.75692,-1.14485 z m 36.4802,-61.86097 c 5.21545,-2.6139 41.48797,-21.43354 56.17206,-29.14432 34.86454,-18.30776 60.69371,-31.3321 62.13618,-31.3321 0.96807,0 28.47403,14.00894 69.81361,35.55647 28.57085,14.89205 49.1483,25.37257 50.26655,25.60178 0.52076,0.10674 1.42131,0.38199 2.00123,0.61166 0.86793,0.34374 1.05439,0.0856 1.05439,-1.45964 0,-2.40003 -2.7837,-19.75169 -13.2586,-82.64483 -8.13303,-48.83213 -8.41405,-50.80852 -7.43887,-52.31617 0.5574,-0.86177 22.6591,-23.08815 49.11488,-49.39196 41.35243,-41.1149 49.44087,-49.48032 47.84197,-49.48032 -0.1427,0 -5.22638,-0.79933 -11.29707,-1.7763 -6.07069,-0.97696 -19.44264,-3.00303 -29.71544,-4.50238 -10.27281,-1.49934 -35.48787,-5.17775 -56.03348,-8.17424 -20.5456,-2.99649 -37.95196,-5.70312 -38.68079,-6.01474 -0.95719,-0.40926 -4.44714,-6.80614 -12.56826,-23.03691 -23.97549,-47.9171 -51.00655,-101.097708 -51.38427,-101.092876 -0.54225,0.0069 -1.46368,1.777792 -20.37527,39.158116 -35.66945,70.50362 -42.58161,83.85238 -43.82592,84.63668 -0.70052,0.44154 -24.4081,4.20762 -53.0818,8.43234 -68.06326,10.02829 -82.359069,12.24569 -82.985054,12.87167 -0.292735,0.29274 20.995764,21.84038 48.612874,49.20462 l 49.13368,48.68381 v 2.85986 c 0,1.57292 -1.63692,12.71639 -3.63761,24.76327 -4.79778,28.8891 -17.97855,107.00689 -18.41123,109.11678 -0.20689,1.00887 -0.0807,1.65691 0.32263,1.65691 0.36434,0 3.16496,-1.25423 6.22361,-2.78718 z"
     id="path933" />
  <path
     style="fill:#f2f2f2;fill-opacity:1;stroke:none;stroke-width:0.60251;stroke-opacity:1"
     d="m 133.15481,509.4854 c -9.5498,-3.28075 -17.61546,-11.47315 -20.50697,-20.8292 -2.11945,-6.85793 -2.93514,-0.7741 12.72197,-94.88707 L 136.17949,328.7935 112.82614,305.85254 C 99.981809,293.23502 75.212889,268.65481 57.784105,251.22985 21.191672,214.64546 22.445029,216.23929 21.85555,205.54152 c -0.379758,-6.89177 0.333414,-10.75992 2.94696,-15.98391 2.144797,-4.28705 9.359804,-12.00212 12.751052,-13.63482 5.699579,-2.74403 11.274557,-3.69565 95.601248,-16.31852 49.73689,-7.44512 60.6935,-9.25058 61.34281,-10.10824 0.43478,-0.57428 15.81261,-31.00398 34.17295,-67.621553 18.36034,-36.617573 34.41444,-67.926575 35.67577,-69.57556 6.3422,-8.2913687 17.16273,-12.35226043 28.50754,-10.6987368 6.68213,0.9739291 11.98377,3.6094968 16.5419,8.2233575 4.27102,4.3232383 4.70615,5.1476193 41.64111,78.8927953 24.70915,49.334867 29.66394,58.904727 31.46333,60.769497 1.06047,1.09901 15.64001,3.81415 17.65351,3.28761 0.58326,-0.15252 1.14124,-0.0842 1.23997,0.15179 0.0987,0.236 17.12513,2.93324 37.83643,5.99384 49.45713,7.30853 79.56355,11.92838 87.36401,13.40606 8.85077,1.67664 13.08605,3.78652 18.32492,9.12887 7.3046,7.44886 9.84033,14.15818 9.25184,24.47952 -0.39434,6.91613 -1.93959,10.26411 -7.81326,16.9284 -3.96872,4.50294 -27.70123,28.22489 -89.27319,89.23347 l -17.39261,17.23347 1.82833,10.78327 c 17.42296,102.75865 23.01987,137.14287 23.00824,141.34964 -0.0184,6.64324 -3.81293,14.71707 -9.57007,20.3625 -6.64192,6.51303 -14.2209,9.35312 -23.83494,8.93172 l -5.44976,-0.23887 -19.24355,-9.83102 c -10.58395,-5.40706 -27.12287,-13.96538 -36.75314,-19.01848 -9.63027,-5.05311 -31.94166,-16.70444 -49.58087,-25.89184 l -32.07129,-16.70437 -10.70695,5.56484 c -10.30097,5.35384 -53.59179,27.96007 -68.54797,35.79536 -15.84035,8.29851 -39.10694,20.30369 -48.89605,25.22955 l -10.33539,5.20076 -6.23365,-0.0156 c -4.8498,-0.0121 -7.10306,-0.31424 -10.14997,-1.36097 z m 76.22041,-82.09773 c 51.07963,-26.60732 77.58226,-40.04039 78.99729,-40.04039 1.07223,0 18.65485,8.93116 62.89109,31.94576 29.4523,15.32303 53.34395,27.44081 57.48163,29.15453 1.29356,0.53576 2.50417,0.82187 2.69023,0.63579 0.18608,-0.18606 -0.14014,-3.64653 -0.72493,-7.68991 -0.77437,-5.35432 -17.48692,-107.21739 -20.59668,-125.53691 -0.27943,-1.64612 0.10336,-2.3885 2.85706,-5.54105 1.74885,-2.00215 22.83662,-23.13298 46.86173,-46.9574 40.8323,-40.49122 48.73866,-48.59432 48.06841,-49.26457 -0.43239,-0.43239 -19.70427,-3.37637 -76.68766,-11.71482 -64.15821,-9.38836 -59.39268,-8.57848 -60.54103,-10.28864 -0.82352,-1.2264 -23.39035,-45.80647 -50.62381,-100.005772 -5.58713,-11.119331 -10.66483,-20.842379 -11.2838,-21.606772 l -1.12539,-1.389799 -20.39114,40.284593 c -44.38834,87.69329 -42.31207,83.75954 -44.47035,84.25486 -1.81115,0.41566 -9.72722,1.6091 -57.99126,8.74289 -80.118171,11.84209 -76.817341,11.31495 -76.827283,12.26919 -0.0042,0.38021 22.001613,22.53465 48.901283,49.23207 l 48.90848,48.54079 -0.38374,4.78139 c -0.21107,2.62977 -2.29826,16.16884 -4.63821,30.08683 -8.28938,49.30516 -16.88193,100.03914 -17.21993,101.67364 -0.23796,1.15081 -0.0971,1.65691 0.46123,1.65691 0.44211,0 20.86616,-10.45044 45.38678,-23.22321 z"
     id="path935" />
  <path
     style="fill:#f2f2f2;fill-opacity:1;stroke:none;stroke-width:0.60251;stroke-opacity:1"
     d="m 166.87647,444.7364 c -0.0104,-0.9113 4.76932,-30.57785 10.62161,-65.92568 6.67603,-40.32324 10.48922,-64.8716 10.23444,-65.88671 -0.26558,-1.05816 -16.50009,-17.76921 -46.92285,-48.30021 -25.58423,-25.67524 -46.734804,-47.06853 -47.001275,-47.54065 -0.724002,-1.28273 -0.09584,-1.85574 2.427962,-2.21477 1.250757,-0.17793 6.747743,-1.02324 12.215523,-1.87845 5.46779,-0.85522 27.97155,-4.27981 50.00837,-7.6102 65.32255,-9.87209 66.71677,-10.11752 68.02161,-11.97392 1.68522,-2.39759 12.47161,-23.1585 32.5905,-62.72799 21.75674,-42.790777 26.2196,-51.335512 27.76111,-53.152323 L 288,76.150628 l 1.18037,1.391955 c 1.40836,1.660808 4.68128,7.914595 33.32655,63.679177 24.14201,46.99796 25.76318,50.05865 27.50541,51.9287 1.80864,1.94135 0.28478,1.67826 83.19269,14.36305 25.01925,3.8279 46.28449,7.16515 47.25609,7.41611 0.9716,0.25096 1.85935,0.7347 1.97278,1.07499 0.11343,0.34028 -21.08403,21.99789 -47.10546,48.12801 -26.02143,26.13013 -47.31169,47.83785 -47.31169,48.23939 0,0.40154 3.66705,23.45792 8.149,51.2364 13.8976,86.13529 13.19058,80.97736 11.09986,80.97736 -1.43802,0 -30.7292,-14.76473 -74.37857,-37.49181 -16.90042,-8.79961 -33.88511,-17.56831 -37.74376,-19.48602 l -7.01571,-3.48672 -45.70395,23.73439 c -50.93264,26.44969 -74.40016,38.4899 -75.07633,38.51855 -0.24854,0.0105 -0.4604,-0.72646 -0.47081,-1.63776 z"
     id="path937" />
  <path
     style="fill:#f2f2f2;fill-opacity:1;stroke:none;stroke-width:0.60251;stroke-opacity:1"
     d="m 133.75058,509.73422 c -12.27782,-3.93009 -22.29036,-16.51368 -22.28459,-28.00689 0.002,-4.04783 2.08269,-17.20311 14.39643,-91.02343 5.63428,-33.77729 10.05448,-61.72754 9.82266,-62.11166 -0.23181,-0.38413 -19.12943,-19.13821 -41.994703,-41.67574 -58.476097,-57.63793 -67.172694,-66.58447 -69.685144,-71.68799 -1.970618,-4.00289 -2.013601,-4.25767 -2.013601,-11.9355 0,-7.78413 0.01714,-7.88121 2.1983,-12.44861 2.572584,-5.38707 9.398092,-13.00858 13.373332,-14.93296 5.691425,-2.75517 11.701074,-3.78409 93.784016,-16.05685 61.06986,-9.13096 61.49355,-9.20091 62.82444,-10.37214 0.58691,-0.51651 15.81966,-30.37726 33.85055,-66.357222 18.03089,-35.979962 33.84245,-67.054057 35.13681,-69.053543 9.92599,-15.3334195 33.18083,-17.4701468 46.23423,-4.2481473 3.228,3.2696843 4.63891,5.6526263 13.05111,22.0425713 5.18752,10.107113 18.29294,36.135565 29.12316,57.841004 22.10821,44.308297 28.78549,57.197247 30.70444,59.267817 1.00956,1.08934 2.64652,1.66632 6.99577,2.46578 3.1228,0.57403 7.03347,1.13076 8.69037,1.23718 1.6569,0.10643 3.41925,0.33885 3.91632,0.51649 0.49707,0.17765 12.96903,2.10661 27.71548,4.28659 98.32119,14.53492 102.07994,15.16676 108.00538,18.15556 4.77718,2.40961 11.26463,9.3317 14.07553,15.01855 l 2.3375,4.7291 v 7.8644 c 0,7.23541 -0.12606,8.12942 -1.57611,11.1782 -0.86687,1.82259 -3.327,5.34728 -5.46696,7.83263 -3.55974,4.13429 -45.7094,46.26712 -89.57432,89.53857 l -17.68852,17.44919 8.18874,48.48102 c 17.08599,101.15661 17.26675,102.36723 16.11607,107.93826 -1.20543,5.83611 -4.47635,11.67591 -9.05013,16.15782 -6.45319,6.32356 -13.40159,9.03765 -23.13748,9.03765 h -5.34975 l -17.56969,-8.92865 c -9.66332,-4.91075 -40.81256,-21.06179 -69.22053,-35.89118 l -51.65086,-26.96253 -22.75918,11.8742 c -12.51755,6.53081 -34.59975,18.06311 -49.07154,25.62733 -14.4718,7.56421 -35.31546,18.37186 -46.31925,24.01698 l -20.00689,10.26385 -6.40042,-0.0324 c -4.3807,-0.0222 -7.44825,-0.36781 -9.72097,-1.0953 z m 80.70279,-84.9688 c 55.5555,-28.86294 72.4596,-37.41814 73.93395,-37.41814 1.09001,0 17.76734,8.47478 64.38255,32.71674 30.07781,15.64178 57.32462,29.34184 58.35534,29.34184 0.31008,0 0.3708,-1.62351 0.14084,-3.76569 -0.29339,-2.73315 -15.06784,-93.36578 -21.15509,-129.77416 -0.27368,-1.6369 0.13065,-2.40682 3.00591,-5.72385 1.82716,-2.10789 22.62155,-22.94718 46.20975,-46.30952 38.01801,-37.65399 49.21694,-49.11368 48.58763,-49.71898 -0.4231,-0.40696 -22.19143,-3.73451 -74.70678,-11.41983 -30.71581,-4.49508 -57.14765,-8.41588 -58.73742,-8.71288 -1.9221,-0.35908 -3.19574,-0.99381 -3.80161,-1.89455 -0.50112,-0.745 -13.93117,-27.13532 -29.84456,-58.64516 -34.43538,-68.184905 -32.13622,-63.745777 -32.88647,-63.495693 -0.82441,0.274805 -4.17018,6.739821 -34.46148,66.589613 -14.46101,28.57217 -26.96865,53.02013 -27.79479,54.3288 -0.82612,1.30867 -1.9867,2.52676 -2.57904,2.70686 -1.18173,0.3593 -21.98129,3.48831 -78.49959,11.80919 -47.964333,7.06153 -56.635983,8.47449 -56.635983,9.22829 0,0.34176 21.993923,22.47002 48.875393,49.17391 l 48.8754,48.55252 -0.34188,4.82008 c -0.18804,2.65105 -2.64592,18.51214 -5.46195,35.24686 -2.81603,16.73473 -7.57924,45.06779 -10.5849,62.96235 -3.00567,17.89456 -5.60128,33.1456 -5.76803,33.89121 -0.18387,0.82217 -0.0181,1.35565 0.42108,1.35565 0.39835,0 23.11063,-11.63046 50.47173,-25.84546 z"
     id="path939" />
  <path
     style="fill:#f2f2f2;fill-opacity:1;stroke:none;stroke-width:0.60251;stroke-opacity:1"
     d="m 166.89836,444.43515 c 0.002,-1.07699 3.77607,-24.73306 8.38763,-52.56904 13.41009,-80.94481 12.97092,-78.03623 12.01761,-79.59135 -1.19364,-1.94718 -15.09212,-16.12485 -57.02071,-58.16617 -21.61887,-21.677 -36.926266,-37.47553 -36.768648,-37.94839 0.357531,-1.07259 -2.287534,-0.62656 56.812118,-9.58001 61.33528,-9.29213 73.53307,-11.24446 74.93254,-11.99344 1.30239,-0.69702 5.07255,-7.67366 20.86122,-38.60349 33.25977,-65.155559 39.17889,-76.583509 40.47608,-78.146585 l 1.39926,-1.686047 1.18074,1.389607 c 1.46481,1.723928 4.57855,7.66665 32.5772,62.175245 24.27759,47.26434 26.49418,51.42165 28.51349,53.47835 1.74167,1.77393 4.80338,2.33571 51.60759,9.46928 61.41175,9.35995 79.71783,12.31163 80.36413,12.95793 0.73255,0.73255 -0.52746,2.03412 -53.54272,55.30823 -21.86579,21.97256 -39.9637,40.32127 -40.21757,40.77491 -0.51286,0.91645 -0.3341,2.10266 9.49307,62.99038 11.76773,72.9112 11.36631,69.89121 9.29004,69.89121 -1.43617,0 -31.62,-15.21519 -75.57942,-38.0984 -16.90042,-8.79756 -33.60713,-17.42504 -37.12602,-19.17217 l -6.39798,-3.17661 -52.9493,27.44793 c -51.17211,26.52667 -67.34916,34.80679 -68.00279,34.80679 -0.17079,0 -0.30919,-0.88118 -0.30756,-1.95816 z"
     id="path941" />
  <path
     style="fill:#f2f2f2;fill-opacity:1;stroke:none;stroke-width:0.60251;stroke-opacity:1"
     d=""
     id="path943" />
  <path
     style="fill:#f2f2f2;fill-opacity:1;stroke:none;stroke-width:0.60251;stroke-opacity:1"
     d="m 166.8954,444.54009 c 0,-1.01927 4.31632,-28.06446 9.59183,-60.10042 5.2755,-32.03596 10.04484,-61.17184 10.59852,-64.74638 l 1.00668,-6.49918 -1.49138,-1.93597 c -0.82026,-1.06478 -21.92516,-22.50911 -46.89977,-47.65407 -24.97462,-25.14496 -45.639836,-46.11586 -45.922711,-46.60201 -1.08235,-1.86009 -5.241127,-1.10868 64.380431,-11.63223 57.97222,-8.76271 66.85262,-10.2336 67.80099,-11.2301 0.90214,-0.94793 7.69729,-13.83462 20.43759,-38.75898 34.40464,-67.307169 38.90098,-75.980598 40.20016,-77.545994 l 1.39772,-1.684128 1.17821,1.38648 c 1.52471,1.794235 4.3834,7.240455 31.84641,60.672102 26.28502,51.13977 27.70425,53.78057 29.68537,55.2365 2.12336,1.56046 6.04814,2.26289 51.70105,9.25311 54.19795,8.2986 75.8923,11.70168 78.05461,12.24401 0.9716,0.24369 1.87019,0.75398 1.99685,1.13397 0.12666,0.37999 -20.86745,21.8808 -46.65358,47.77957 -25.78613,25.89877 -47.08007,47.43227 -47.31986,47.85224 -0.45646,0.79941 0.35734,6.1232 12.16081,79.55499 3.99498,24.85355 7.43599,47.01841 7.6467,49.25523 0.36864,3.91337 0.33265,4.06694 -0.95291,4.06694 -1.44107,0 -34.9243,-16.84903 -74.15084,-37.3133 -13.42092,-7.00162 -29.03135,-15.07382 -34.68986,-17.93823 l -10.28819,-5.20801 -51.77039,26.84967 c -49.33937,25.58889 -68.5525,35.41741 -69.23516,35.41741 -0.1701,0 -0.30928,-0.83395 -0.30928,-1.85322 z"
     id="path945" />
  <path
     style="fill:#f2f2f2;fill-opacity:1;stroke:none;stroke-width:0.60251;stroke-opacity:1"
     d="m 166.8954,444.57428 c 0,-1.68319 3.97731,-26.35341 14.52003,-90.06382 2.30313,-13.91799 4.74386,-28.89651 5.42384,-33.2856 l 1.23634,-7.98015 -1.28452,-1.66002 c -0.70649,-0.913 -21.8076,-22.37089 -46.89136,-47.68419 -25.08376,-25.3133 -45.838286,-46.41976 -46.121161,-46.90325 -1.093441,-1.86891 -4.129543,-1.31836 64.079171,-11.61983 47.15817,-7.12223 64.92051,-9.97288 66.92424,-10.74054 1.80506,-0.69155 3.99816,-4.77489 31.27731,-58.23521 26.46243,-51.859732 30.72983,-59.949787 31.62279,-59.949787 1.69852,0 0.43868,-2.327943 31.95469,59.046027 24.56454,47.83674 28.74291,55.73069 30.41505,57.4614 0.59871,0.61967 2.53971,1.50636 4.31335,1.97042 1.77363,0.46407 27.89759,4.6405 58.05324,9.28097 63.38473,9.75388 69.08374,10.68918 69.87022,11.46686 0.7118,0.70384 0.14594,1.28807 -51.30938,52.97516 -22.2679,22.3682 -41.03659,41.38055 -41.70821,42.24967 -1.09113,1.412 -1.15841,1.95714 -0.63208,5.12133 0.32396,1.94763 4.10387,25.50264 8.39981,52.34448 13.00136,81.23515 12.32847,76.21757 10.22137,76.21757 -1.4413,0 -33.85079,-16.33174 -78.59068,-39.6033 -17.2318,-8.96316 -33.391,-17.31491 -35.90932,-18.55945 l -4.57877,-2.26279 -50.55094,26.22717 c -47.65016,24.72217 -69.72087,36.00591 -70.42669,36.00591 -0.16959,0 -0.30834,-0.81857 -0.30834,-1.81903 z"
     id="path947" />
  <path
     style="fill:#f2f2f2;fill-opacity:1;stroke:none;stroke-width:0.60251;stroke-opacity:1"
     d="m 166.8954,444.54804 c 0,-2.02518 0.1647,-3.06089 9.62315,-60.51457 3.60058,-21.87113 7.6795,-46.74457 9.06425,-55.2743 l 2.51773,-15.50861 -1.63994,-1.96419 c -0.90196,-1.08031 -22.14425,-22.67746 -47.20507,-47.99367 -25.06083,-25.31621 -45.565143,-46.46433 -45.565143,-46.99581 0,-1.19266 0.947148,-1.35516 59.949793,-10.28555 61.81737,-9.35642 69.91615,-10.71013 71.65902,-11.97776 1.85184,-1.34689 4.22434,-5.80434 31.47655,-59.13818 26.51253,-51.886254 29.98214,-58.443517 30.9239,-58.443517 1.67255,0 0.59542,-1.986231 31.04029,57.238497 32.58182,63.38175 30.43911,59.54671 33.90861,60.69003 3.21292,1.05876 9.96648,2.15811 71.21757,11.59283 30.15565,4.64499 55.62417,8.66538 56.59672,8.93422 0.97255,0.26883 1.87352,0.80452 2.00215,1.19042 0.12864,0.38589 -21.09035,22.12143 -47.15331,48.30119 -35.10373,35.26106 -47.31027,47.8774 -47.09045,48.67138 0.1632,0.58949 0.47499,2.42746 0.69286,4.08436 0.21787,1.65691 3.64027,23.21172 7.60532,47.89958 9.47474,58.99312 11.97882,75.20636 11.98094,77.57323 0.001,1.5767 -0.24028,1.95815 -1.24068,1.95815 -1.44191,0 -34.78584,-16.80096 -80.39774,-40.5099 -17.56318,-9.12928 -33.44848,-17.34087 -35.30069,-18.24796 l -3.36763,-1.64926 -49.95454,25.90525 c -54.2687,28.14247 -70.21605,36.30941 -70.90032,36.30941 -0.24384,0 -0.44334,-0.83037 -0.44334,-1.84527 z"
     id="path949" />
  <path
     style="fill:#f2f2f2;fill-opacity:1;stroke:none;stroke-width:0.60251;stroke-opacity:1"
     d="m 166.8954,444.50397 c 0,-1.78656 2.5634,-17.7652 13.80909,-86.07719 2.6458,-16.07197 5.37153,-32.83232 6.05717,-37.24523 l 1.24661,-8.02349 -2.27191,-2.62281 c -1.24956,-1.44255 -22.56922,-23.11131 -47.37704,-48.15281 -27.54878,-27.80829 -44.984192,-45.84512 -44.794446,-46.3396 0.377458,-0.98363 1.11953,-1.10904 54.259716,-9.16974 69.31937,-10.51488 76.30582,-11.6787 77.86236,-12.9705 1.40964,-1.1699 9.66998,-16.8736 33.09853,-62.92352 12.51099,-24.59094 26.42016,-51.518115 27.52732,-53.290957 0.94522,-1.513542 1.814,-1.565723 3.02763,-0.181847 1.05369,1.20149 9.38574,17.147297 33.29284,63.715484 21.23149,41.35644 25.56577,49.49344 27.42531,51.48725 2.02752,2.17391 1.68437,2.11182 68.68619,12.42736 60.7103,9.34691 63.33206,9.79704 63.71273,10.93907 0.13549,0.40647 -19.36478,20.46874 -43.33393,44.58284 -52.49633,52.81376 -51.05783,51.30497 -50.73786,53.2173 0.13544,0.80943 4.16196,26.00894 8.94783,55.9989 12.85618,80.5614 12.07861,74.71129 9.9303,74.71129 -1.45451,0 -35.04931,-16.92352 -81.60694,-41.10984 -18.22594,-9.46823 -34.10458,-17.67464 -35.28588,-18.23645 l -2.1478,-1.02149 -48.76433,25.27567 c -55.16687,28.59425 -71.39142,36.89965 -72.08327,36.89965 -0.26413,0 -0.48022,-0.85021 -0.48022,-1.88934 z"
     id="path951" />
  <path
     style="fill:#f2f2f2;fill-opacity:1;stroke:none;stroke-width:0.60251;stroke-opacity:1"
     d=""
     id="path953" />
  <path
     style="fill:#f2f2f2;fill-opacity:1;stroke:#f2f2f2;stroke-width:20.03149606;stroke-opacity:1;stroke-miterlimit:4;stroke-dasharray:none"
     d="m 167.07221,442.69795 c 0.20031,-2.10981 4.18391,-27.01762 8.85244,-55.35067 4.66853,-28.33305 9.3017,-56.62716 10.29593,-62.8758 l 1.8077,-11.36115 -2.85814,-3.0991 c -1.57197,-1.7045 -22.798,-23.26172 -47.16895,-47.90493 -24.37095,-24.64322 -44.310813,-45.23694 -44.310813,-45.76383 0,-1.3578 -2.389467,-0.94788 65.673643,-11.2665 65.14426,-9.87612 65.46976,-9.93548 67.10326,-12.23748 1.90052,-2.67833 10.34411,-18.85356 32.60554,-62.46192 24.31497,-47.631064 27.65702,-53.924687 28.63517,-53.924687 1.67917,0 0.92865,-1.378041 29.20491,53.623427 33.82826,65.8009 32.15613,62.79844 35.70309,64.10824 3.2179,1.18829 8.90904,2.12456 71.85263,11.82062 54.39484,8.37919 57.61036,8.93571 57.97654,10.03426 0.12871,0.3861 -20.96434,22.0539 -46.87342,48.15066 l -47.10743,47.44865 0.34658,3.6623 c 0.19061,2.01427 3.73903,24.81042 7.88535,50.65812 13.26282,82.6788 12.71209,78.62761 10.68888,78.62761 -1.63937,0 -24.28997,-11.36016 -74.49147,-37.36038 l -44.53629,-23.06612 -8.16194,4.24896 c -12.63543,6.57778 -69.83279,36.19448 -91.30839,47.27934 -10.60418,5.47346 -19.93254,10.15305 -20.72968,10.39908 l -1.44934,0.44734 z"
     id="path955" />
  <path
     style="fill:#f2f2f2;fill-opacity:1;stroke:#f2f2f2;stroke-width:0;stroke-miterlimit:4;stroke-dasharray:none;stroke-opacity:1"
     d="m 135.06662,510.26435 c -3.50265,-0.82864 -9.53951,-4.25425 -13.11828,-7.44395 -6.23985,-5.56149 -10.4839,-14.05468 -10.4839,-20.98036 0,-4.11565 1.43381,-13.24575 13.4674,-85.75636 5.77444,-34.79498 10.61785,-64.14548 10.76314,-65.22333 0.25331,-1.87932 -0.6031,-2.81832 -20.87023,-22.88317 -11.6239,-11.50789 -36.344648,-36.1122 -54.934983,-54.67625 -40.158558,-40.10177 -37.898135,-37.11906 -37.898135,-50.00792 0,-7.78413 0.01714,-7.88121 2.1983,-12.44861 2.780032,-5.82147 9.450998,-13.07377 13.982481,-15.20098 5.552683,-2.60659 10.61695,-3.46504 94.681147,-16.04958 31.14979,-4.66317 57.65329,-8.74947 58.89667,-9.08065 1.83211,-0.48801 2.60473,-1.19736 4.07551,-3.74178 0.99817,-1.72678 16.02781,-31.47267 33.3992,-66.101954 17.3714,-34.629289 32.64257,-64.598285 33.93593,-66.597771 9.93012,-15.3515046 33.17295,-17.487406 46.22825,-4.2481473 4.29855,4.3591123 6.73534,8.9734983 43.29903,81.9923623 13.10899,26.17908 25.19643,49.92654 26.86096,52.77214 2.64676,4.52475 3.31103,5.2565 5.29514,5.83299 2.56685,0.74582 14.71943,2.6883 15.57031,2.48878 0.30589,-0.0717 0.96285,0.0315 1.45992,0.22948 0.49707,0.19793 13.1046,2.15868 28.01673,4.3572 70.13632,10.34035 95.19026,14.24043 101.17874,15.75026 5.56528,1.40313 9.3211,3.63117 13.95353,8.27756 3.09272,3.10205 4.92039,5.60382 6.62761,9.07206 l 2.35728,4.78883 v 7.86389 c 0,9.3029 -0.66907,11.25864 -6.1389,17.94439 -2.93593,3.58859 -41.12093,41.82189 -93.47694,93.59516 l -14.66737,14.50413 6.36798,37.61303 c 9.78582,57.80072 16.47171,98.28234 17.63206,106.75831 0.84759,6.19128 0.92511,8.4338 0.39795,11.51134 -1.99115,11.62424 -12.61185,22.61984 -24.16954,25.02268 -1.75606,0.36509 -5.52674,0.66379 -8.37929,0.66379 h -5.18645 l -18.73368,-9.54745 c -10.30353,-5.25111 -41.23745,-21.29758 -68.74206,-35.65883 -27.5046,-14.36126 -50.44541,-26.08123 -50.97958,-26.04437 -0.92811,0.064 -11.60551,5.56896 -70.42627,36.30963 -14.41507,7.53354 -35.50792,18.47717 -46.873,24.31919 l -20.66381,10.62183 -6.44916,-0.0617 c -3.54705,-0.0339 -7.35121,-0.27507 -8.45369,-0.5359 z"
     id="path957" />
</svg>
